<svg width="288" height="288" viewBox="0 0 288 288" fill="none" xmlns="http://www.w3.org/2000/svg">
<g clip-path="url(#clip0_514_3373)">
<g clip-path="url(#clip1_514_3373)">
<path d="M124.15 151.712L81.1651 151.705C78.3435 151.687 75.5217 151.695 72.7002 151.732C70.7673 151.748 68.0679 151.83 66.2118 151.528C64.118 151.192 62.1739 150.232 60.6314 148.777C56.8501 145.267 56.8522 141.625 56.8497 136.815C56.847 131.818 56.8422 126.807 56.8422 121.809L56.8429 89.2505L56.8265 72.6398C56.8231 69.6805 56.7097 66.087 57.0609 63.2069C57.279 61.4171 58.682 58.9382 59.9583 57.6665C62.5901 55.0447 64.8705 54.1804 68.514 54.1277C72.5985 54.0688 76.6135 54.084 80.6766 54.0863L101.471 54.0973L165.27 54.0817L200.574 54.0792L212.726 54.0671C215.163 54.0751 217.636 54.0308 220.064 54.2372C223.993 54.5715 227.398 57.3301 228.949 60.8932C229.7 62.6203 229.913 64.1514 229.916 66.0362C229.95 72.4895 229.939 78.9671 229.935 85.4186L229.929 118.144L229.94 133.242C229.946 135.51 230.065 140.024 229.755 142.132C229.413 144.505 228.326 146.708 226.651 148.424C225.263 149.833 223.519 150.839 221.605 151.335C219.313 151.921 214.466 151.74 211.937 151.739C207.529 151.725 203.122 151.736 198.714 151.768L198.699 151.048C198.515 150.345 198.394 149.957 197.767 149.56C196.605 149.449 196.529 150.09 196.218 151.047L195.933 151.758C188.149 151.709 180.364 151.703 172.579 151.74C173.538 154.645 174.561 157.635 175.473 160.546C175.047 160.952 174.618 161.356 174.187 161.757C173.192 162.465 172.617 162.855 171.533 163.416C169.642 164.413 167.34 165.525 165.271 166.054C164.679 166.168 164.011 166.222 163.406 166.285C162.935 165.07 162.402 163.581 161.836 162.43C161.308 163.017 160.619 163.831 160.075 164.368C157.456 167.857 156.704 175.493 157.506 179.715C157.717 180.824 158.289 183.15 158.056 184.022C157.545 184.243 157.032 184.454 156.516 184.655C147.077 188.279 135.257 185.077 126.336 181.074C125.39 180.61 123.723 179.436 123.029 179.16L121.778 177.982C122.254 176.28 124.424 172.124 124.616 170.976C122.782 170.09 121.35 168.545 120.607 166.649C119.299 163.273 120.477 160.147 121.804 157.033C122.008 156.317 123.755 152.585 124.15 151.712Z" fill="#EBECF6"/>
<path d="M138.927 123.866C141.269 121.152 148.659 116.477 151.886 114.759C151.726 116.745 151.784 118.319 151.888 120.311C151.228 121.489 150.687 122.491 151.055 123.915C151.483 125.567 152.888 126.189 153.454 126.856C153.916 128.103 154.187 129.221 155.201 130.085C155.351 129.763 155.512 129.577 155.724 129.297C158.099 133.167 159.404 134.483 163.485 136.659C163.325 136.984 162.955 137.677 162.863 137.996C164.6 138.746 166.787 140.104 168.095 141.481L168.408 142.754C170.705 145.502 171.253 147.756 172.387 151.132L172.579 151.74C173.538 154.645 174.561 157.635 175.473 160.546C175.047 160.952 174.618 161.356 174.187 161.757C173.192 162.465 172.617 162.855 171.533 163.416C169.642 164.413 167.34 165.525 165.271 166.054C164.679 166.168 164.011 166.222 163.406 166.285C162.935 165.07 162.402 163.581 161.836 162.43C161.308 163.017 160.619 163.831 160.075 164.368C157.456 167.857 156.704 175.493 157.506 179.715C157.717 180.824 158.289 183.15 158.056 184.022C157.545 184.243 157.032 184.454 156.516 184.655C147.077 188.279 135.257 185.077 126.336 181.074C125.39 180.61 123.723 179.436 123.029 179.16L121.778 177.982C122.254 176.28 124.424 172.124 124.616 170.976C122.782 170.09 121.35 168.545 120.607 166.649C119.299 163.273 120.477 160.147 121.804 157.033C122.008 156.317 123.755 152.585 124.15 151.712L124.426 151.093C124.996 149.759 125.875 147.277 126.957 146.31C127.268 146.032 127.69 146.112 128.094 146.163C129.471 146.746 130.81 147.599 132.064 148.413C132.499 147.565 133.815 144.779 134.329 144.162C133.437 142.881 132.294 141.427 131.346 140.16C130.449 139.133 128.883 136.866 127.905 135.622C129.455 135.291 130.671 134.761 131.993 133.9L133.178 133.005L133.279 132.921C135.219 131.291 139.116 127.035 139.344 124.462L138.927 123.866Z" fill="#3BA6AB"/>
<path d="M133.178 133.005C134.473 135.576 138.102 139.336 139.68 142.009C140.629 143.617 140.298 145.918 140.648 146.512L140.031 147.24C140.348 147.528 140.288 147.563 140.413 147.964C140.788 149.167 141.933 150.394 141.798 151.622L140.858 152.436C137.566 155.14 134.434 157.341 130.178 158.282L126.469 166.949C126.136 167.723 125.041 170.384 124.616 170.976C122.782 170.09 121.35 168.545 120.607 166.649C119.299 163.273 120.477 160.147 121.804 157.033C122.008 156.317 123.755 152.585 124.15 151.712L124.426 151.093C124.996 149.759 125.875 147.277 126.957 146.31C127.268 146.032 127.69 146.112 128.094 146.163C129.471 146.746 130.81 147.599 132.064 148.413C132.499 147.565 133.815 144.779 134.329 144.162C133.437 142.881 132.294 141.427 131.346 140.16C130.449 139.133 128.883 136.866 127.905 135.622C129.455 135.291 130.671 134.761 131.993 133.9L133.178 133.005Z" fill="#25243D"/>
<path d="M133.178 133.005C134.473 135.576 138.102 139.336 139.68 142.009C140.629 143.617 140.298 145.918 140.647 146.512L140.031 147.24C137.392 149.887 135.319 151.848 131.858 153.412C132.577 151.3 134.354 147.489 135.261 145.257L134.329 144.162C133.437 142.881 132.294 141.427 131.346 140.16C130.449 139.133 128.882 136.866 127.905 135.622C129.455 135.291 130.671 134.761 131.993 133.9L133.178 133.005Z" fill="#2A868F"/>
<path d="M124.426 151.093C124.996 149.759 125.875 147.277 126.957 146.31C127.268 146.032 127.69 146.112 128.094 146.163C129.471 146.746 130.81 147.599 132.064 148.413L128.109 157.338C127.37 159.029 126.304 161.682 125.391 163.157C123.447 162.143 122.81 161.002 122.379 158.903C122.24 158.224 122.212 157.6 121.804 157.033C122.008 156.317 123.755 152.585 124.15 151.712L124.426 151.093Z" fill="#2D2E4E"/>
<path d="M138.927 123.866C141.269 121.152 148.659 116.477 151.886 114.759C151.726 116.745 151.784 118.319 151.888 120.311C151.228 121.489 150.687 122.491 151.055 123.915C151.483 125.567 152.887 126.189 153.454 126.856C153.915 128.103 154.187 129.221 155.201 130.085C155.187 130.629 155.139 130.764 155.001 131.301L154.797 131.37C154.306 132.39 153.53 133.993 152.58 134.618C151.892 134.461 151.601 134.356 150.941 134.095C150.768 132.931 147.372 132.092 146.306 132.179C145.86 131.827 144.006 130.068 143.859 129.601C143.291 129.329 140.218 125.405 139.344 124.462L138.927 123.866Z" fill="#EBECF6"/>
<path d="M143.859 129.601C148.16 128.73 150.815 130.312 154.797 131.37C154.306 132.39 153.53 133.993 152.58 134.618C151.892 134.461 151.601 134.356 150.941 134.095C150.768 132.931 147.372 132.092 146.306 132.179C145.86 131.827 144.006 130.068 143.859 129.601Z" fill="#25243D"/>
<path d="M168.408 142.754C170.705 145.502 171.253 147.756 172.387 151.132L172.579 151.74C173.538 154.645 174.561 157.635 175.473 160.546C175.047 160.952 174.618 161.356 174.187 161.757C173.192 162.465 172.617 162.855 171.533 163.416C169.642 164.413 167.34 165.525 165.271 166.054C164.679 166.168 164.011 166.222 163.406 166.285C162.935 165.07 162.402 163.581 161.835 162.43C163.734 159.979 165.016 157.47 166.184 154.63C166.504 153.976 166.947 152.675 167.217 151.947C168.157 148.641 168.446 146.168 168.408 142.754Z" fill="#3BA6AB"/>
<path d="M166.184 154.63C166.504 153.976 166.947 152.675 167.217 151.947C167.802 156.784 162.539 164.057 171.533 163.416C169.642 164.413 167.34 165.525 165.271 166.054C164.679 166.168 164.011 166.222 163.406 166.285C162.935 165.07 162.402 163.581 161.835 162.43C163.734 159.979 165.016 157.47 166.184 154.63Z" fill="#2A868F"/>
<path d="M139.344 124.462C140.218 125.405 143.291 129.329 143.859 129.601C144.006 130.068 145.86 131.827 146.306 132.18C146.782 132.852 146.625 133.931 146.471 134.734C145.688 138.801 143.352 143.409 140.648 146.512C140.298 145.918 140.629 143.618 139.68 142.009C138.102 139.336 134.473 135.576 133.178 133.005L133.279 132.921C135.219 131.291 139.116 127.035 139.344 124.462Z" fill="#3BA6AB"/>
<path d="M140.858 152.436C140.839 152.591 140.815 152.782 140.787 153.011C139.437 154.897 136.417 156.433 135.271 158.468C132.577 163.254 130.841 168.629 128.888 173.758C128.241 175.459 126.679 179.48 126.336 181.074C125.39 180.61 123.723 179.436 123.029 179.16L121.778 177.982C122.254 176.28 124.424 172.124 124.616 170.976C125.041 170.384 126.136 167.723 126.469 166.949L130.178 158.282C134.434 157.341 137.566 155.14 140.858 152.436Z" fill="#2A868F"/>
<path d="M155.724 129.297C158.099 133.167 159.404 134.483 163.485 136.659C163.325 136.984 162.955 137.677 162.863 137.996C162.688 138.421 162.609 138.539 162.596 139.008L162.515 139.24C162.578 140.254 162.738 141.394 162.395 142.366C161.544 144.726 159.484 144.644 157.286 143.855C154.38 142.813 150.659 138.649 151.466 135.365C151.559 134.989 152.213 134.766 152.58 134.618C153.53 133.993 154.306 132.39 154.797 131.37L155.001 131.301C155.139 130.764 155.187 130.629 155.201 130.085C155.351 129.763 155.512 129.577 155.724 129.297Z" fill="#FA9A85"/>
<path d="M155.724 129.297C158.099 133.167 159.404 134.483 163.485 136.659C163.325 136.984 162.955 137.677 162.863 137.996C162.688 138.421 162.609 138.539 162.596 139.008L162.515 139.24L162.368 139.565C161.333 139.912 158.811 137.63 158.095 136.824C156.575 135.112 155.734 133.434 155.001 131.301C155.139 130.764 155.187 130.629 155.201 130.085C155.351 129.763 155.512 129.577 155.724 129.297Z" fill="#F3695C"/>
<path d="M146.306 132.179C147.372 132.092 150.768 132.931 150.941 134.095C149.878 141.424 147.092 146.431 141.798 151.622C141.933 150.394 140.788 149.167 140.413 147.964C140.288 147.563 140.348 147.528 140.031 147.24L140.648 146.512C143.352 143.409 145.687 138.801 146.471 134.734C146.625 133.931 146.782 132.852 146.306 132.179ZM162.863 137.996C164.6 138.746 166.787 140.104 168.095 141.481L168.408 142.754C168.446 146.168 168.157 148.641 167.217 151.947C166.947 152.675 166.504 153.976 166.184 154.63C164.977 154.481 164.46 154.119 163.43 153.546C163.887 151.353 165.42 139.882 162.596 139.008C162.609 138.539 162.688 138.421 162.863 137.996Z" fill="#2D2E4E"/>
<path d="M163.43 153.546C164.46 154.119 164.977 154.481 166.184 154.63C165.016 157.47 163.734 159.979 161.835 162.43C161.308 163.017 160.619 163.831 160.075 164.368C160.118 163.568 161.57 160.021 161.94 158.941C162.56 157.179 163.057 155.377 163.43 153.546Z" fill="#25243D"/>
<path d="M141.995 158.695C142.093 158.76 142.258 158.877 142.287 158.989C143.849 164.779 146.301 170.134 150.636 174.396C151.363 175.112 152.257 175.832 152.958 176.587L153.037 176.674C152.38 176.597 151.734 175.915 151.215 175.492C147.417 172.385 142.336 163.495 141.995 158.695Z" fill="#1B626F"/>
<path d="M171.139 107.652C171.897 107.962 172.814 108.26 173.353 108.848C173.32 109.05 173.302 109.237 173.296 109.443C174.829 109.956 178.583 108.123 179.858 110.638C180.786 112.468 179.897 113.209 179.286 114.743L179.423 114.881C181.568 117.067 179.37 118.157 177.258 118.486C177.03 119.35 176.909 119.88 176.543 120.696C175.285 124.4 175.801 128.25 173.994 131.881C172.367 135.152 169.012 137.443 165.239 137.004C164.701 136.942 163.955 136.689 163.485 136.659C159.404 134.483 158.099 133.167 155.724 129.297C155.512 129.577 155.351 129.763 155.201 130.085C154.187 129.221 153.916 128.103 153.454 126.856C152.888 126.189 151.483 125.567 151.055 123.915C150.687 122.491 151.228 121.489 151.888 120.311C151.784 118.319 151.726 116.745 151.886 114.759C152.172 114.663 154.364 113.378 154.846 113.113C157.278 113.802 160.166 114.133 162.21 112.575C162.966 112.101 163.983 111.467 164.842 111.261C166.282 110.914 169.244 112.165 170.287 111.009L170.201 110.659C169.235 109.543 167.892 109.26 166.482 108.856L166.451 108.551C166.767 108.245 166.98 108.332 167.539 108.27C168.535 108.468 169.76 109.325 170.667 108.763C171.031 108.315 171.017 108.238 171.139 107.652Z" fill="#FA9A85"/>
<path d="M171.139 107.652C171.897 107.962 172.814 108.26 173.353 108.848C173.32 109.05 173.302 109.237 173.296 109.443C174.829 109.956 178.583 108.123 179.858 110.638C180.786 112.468 179.897 113.209 179.286 114.743L179.423 114.881C181.568 117.067 179.37 118.157 177.258 118.486C177.03 119.35 176.909 119.88 176.543 120.696C176.435 120.191 176.489 119.011 176.497 118.444C172.396 117.675 170.072 116.235 167.099 113.31C166.116 115.006 163.261 117.428 162.232 114.567C161.27 117.144 161.561 117.092 159.318 119.054C159.081 119.941 158.348 123.096 157.35 123.12C156.025 121.885 155.946 117.515 151.888 120.311C151.784 118.319 151.726 116.745 151.886 114.759C152.172 114.663 154.364 113.378 154.846 113.113C157.278 113.802 160.166 114.133 162.21 112.575C162.966 112.101 163.983 111.467 164.842 111.261C166.282 110.914 169.244 112.165 170.287 111.009L170.201 110.659C169.235 109.543 167.892 109.26 166.482 108.856L166.451 108.551C166.767 108.245 166.98 108.332 167.539 108.27C168.535 108.468 169.76 109.325 170.667 108.763C171.031 108.315 171.017 108.238 171.139 107.652ZM153.454 126.856C154.076 126.737 154.589 126.811 155.222 126.854L155.724 129.297C155.512 129.577 155.351 129.763 155.201 130.085C154.187 129.221 153.915 128.103 153.454 126.856Z" fill="#46272E"/>
<path d="M165.265 130.155C166.521 129.617 169.459 130.303 169.758 131.649C169.499 133.058 168.583 133.717 167.244 133.987C165.828 133.556 163.789 133.335 163.838 131.564C164.299 131.037 164.755 130.63 165.265 130.155Z" fill="#922527"/>
<path d="M163.838 131.564C165.683 131.794 166.385 132.357 167.244 133.987C165.828 133.556 163.789 133.335 163.838 131.564Z" fill="#F3695C"/>
<path d="M165.265 130.155C166.521 129.617 169.459 130.303 169.758 131.649C168.353 131.344 166.6 130.69 165.265 130.155Z" fill="white"/>
<path d="M166.88 118.549C166.935 118.54 167.272 118.569 167.341 118.574L167.545 118.838C167.081 120.239 164.921 120.328 163.679 120.432C163.354 120.395 163.363 120.382 163.063 120.239L162.99 119.943C163.367 119.426 165.966 118.961 166.88 118.549ZM172.198 119.442C172.538 119.572 175.34 121.42 175.71 121.791C175.85 121.932 175.755 122.171 175.721 122.437C175.483 122.401 175.247 122.354 175.015 122.297C173.67 121.954 171.648 121.149 172.198 119.442ZM164.831 121.723C166.456 122.292 165.871 123.594 165.014 124.539C163.562 123.906 164.045 122.639 164.831 121.723ZM172.569 123.234C174.184 123.483 173.596 125.101 172.894 125.966C171.595 125.293 171.876 124.258 172.569 123.234Z" fill="#46272E"/>
<path d="M169.712 123.556L169.924 123.735C170.155 124.607 170.921 127.841 170.812 128.589C170.332 128.948 169.817 129.024 169.228 129.18L169.116 129.018C169.471 128.663 170.002 128.54 170.508 128.347C170.228 127.15 169.505 124.653 169.712 123.556ZM153.278 121.255C155.017 121.086 155.849 122.884 155.554 124.381C155.024 123.988 155.199 123.009 154.631 122.06C154.205 121.731 154.139 121.741 153.592 121.612L153.44 121.577L153.278 121.255Z" fill="#F3695C"/>
<path d="M154.623 122.864C154.688 122.919 154.641 122.869 154.782 123.101C154.381 123.589 154.186 123.848 153.852 124.383L153.678 124.185L153.709 123.809C154.022 123.278 154.115 123.246 154.623 122.864Z" fill="#F3695C"/>
<path d="M126.77 121.193C125.327 115.439 148.123 109.336 152.321 107.982C153.049 107.67 154.014 106.906 154.553 106.351C156.717 104.111 158.476 103.415 161.57 103.171C163.401 103.027 164.087 102.96 165.804 103.905L166.321 104.142C167.494 104.575 168.864 105.248 169.445 106.427L169.651 106.774C170.318 107.072 170.536 107.228 171.139 107.652C171.017 108.238 171.031 108.315 170.667 108.763C169.76 109.325 168.535 108.468 167.539 108.27C166.98 108.332 166.767 108.245 166.451 108.551L166.482 108.856C167.892 109.26 169.235 109.543 170.201 110.659L170.287 111.009C169.244 112.165 166.282 110.914 164.842 111.261C163.983 111.467 162.966 112.101 162.21 112.575C160.166 114.133 157.278 113.802 154.846 113.113C154.364 113.378 152.172 114.663 151.886 114.759C148.659 116.477 141.269 121.152 138.927 123.866L139.344 124.462C139.116 127.035 135.219 131.291 133.279 132.921L133.178 133.005L131.993 133.9C131.458 132.834 129.971 129.749 129.292 128.978C129.285 128.711 128.614 127.265 128.48 126.957C127.652 125.047 126.998 123.273 126.77 121.193Z" fill="#FA9A85"/>
<path d="M126.77 121.193L126.926 120.861C128.555 121.172 131.674 131.274 135.266 128.408C137.258 126.819 137.549 125.637 138.927 123.866L139.344 124.462C139.116 127.035 135.219 131.291 133.279 132.921L133.178 133.005L131.993 133.9C131.458 132.834 129.971 129.749 129.291 128.978C129.285 128.711 128.614 127.265 128.48 126.957C127.652 125.047 126.998 123.273 126.77 121.193ZM169.651 106.774C169.023 106.802 167.24 105.972 165.842 105.888C164.136 105.786 162.51 106.617 161.453 106.413L161.432 106.269C162.152 105.984 162.772 105.91 163.482 105.753C166.302 105.129 167.04 105.763 169.445 106.427L169.651 106.774Z" fill="#F3695C"/>
<path d="M161.903 109.286C163.409 108.641 165.911 107.896 167.539 108.27C166.98 108.332 166.767 108.245 166.451 108.551L166.482 108.856C165.158 108.823 163.408 109.225 161.903 109.286Z" fill="#922527"/>
<path d="M165.804 103.905L166.321 104.142C166.143 104.234 160.381 104.876 160.234 104.776C162.203 103.908 163.782 104.139 165.684 103.92L165.804 103.905Z" fill="#F3695C"/>
<path d="M124.15 151.712L81.1651 151.705C78.3435 151.687 75.5217 151.695 72.7002 151.732C70.7673 151.748 68.0679 151.83 66.2118 151.528C64.118 151.192 62.1739 150.232 60.6314 148.777C56.8501 145.267 56.8522 141.625 56.8497 136.815C56.847 131.818 56.8422 126.807 56.8422 121.809L56.8429 89.2505L56.8265 72.6398C56.8231 69.6805 56.7097 66.087 57.0609 63.2069C57.279 61.4171 58.682 58.9382 59.9583 57.6665C62.5901 55.0447 64.8705 54.1804 68.514 54.1277C72.5985 54.0688 76.6135 54.084 80.6766 54.0863L101.471 54.0973L165.27 54.0817L200.574 54.0792L212.726 54.0671C215.163 54.0751 217.636 54.0308 220.064 54.2372C223.993 54.5715 227.398 57.3301 228.949 60.8932C229.7 62.6203 229.913 64.1514 229.916 66.0362C229.95 72.4895 229.939 78.9671 229.935 85.4186L229.929 118.144L229.94 133.242C229.946 135.51 230.065 140.024 229.755 142.132C229.413 144.505 228.326 146.708 226.651 148.424C225.263 149.833 223.519 150.839 221.605 151.335C219.313 151.921 214.466 151.74 211.937 151.739C207.529 151.725 203.122 151.736 198.714 151.768L198.699 151.048C200.202 150.961 202.482 151.044 204.075 151.051L214.242 151.071C215.944 151.069 218.408 151.137 220.044 150.923C221.012 150.795 221.958 150.538 222.857 150.158C231.593 146.445 228.825 136.132 229.281 128.515C229.348 127.395 229.309 114.888 229.118 114.439C228.783 114.329 228.88 114.391 228.607 114.187C229.548 113.628 229.302 113.23 229.298 112.167C229.253 102.735 229.265 93.3005 229.312 83.8686L229.283 72.0544C229.276 66.8641 229.992 61.9469 226.066 57.9308C224.447 56.2954 222.331 55.243 220.05 54.938C218.049 54.6846 215.056 54.7213 213.036 54.7262L204.01 54.7433L174.296 54.7523L74.5209 54.7338C69.3761 54.7165 64.6537 53.9619 60.7059 58.0081C56.6535 62.1615 57.5418 67.3321 57.56 72.8467L57.5577 86.4975L57.5452 137.224C57.5639 141.607 57.6699 144.747 60.9517 148.008C64.5258 151.561 68.5186 151.034 73.1421 151.076C76.0995 151.118 79.0576 151.121 82.0152 151.082C82.6164 151.073 84.2506 151.145 84.5953 150.791C84.6197 150.273 84.5524 150.21 84.8016 149.809L85.0142 149.863C85.0512 150.304 85.0201 150.573 85.2997 150.908C86.3507 151.394 120.62 150.974 124.426 151.093L124.15 151.712Z" fill="#A7AAD7"/>
<path d="M131.346 140.16C132.294 141.427 133.437 142.881 134.329 144.162C133.815 144.779 132.499 147.565 132.064 148.413C130.81 147.599 129.471 146.746 128.094 146.163C129.12 144.063 130.177 142.178 131.346 140.16Z" fill="#2D2E4E"/>
<path d="M129.291 128.978C129.971 129.749 131.458 132.834 131.993 133.9C130.671 134.761 129.455 135.291 127.905 135.622C126.467 133.508 128.226 130.937 129.291 128.978Z" fill="#1B626F"/>
<path d="M196.218 151.047L195.933 151.758C188.149 151.709 180.364 151.703 172.579 151.74L172.387 151.133C174.336 150.922 178.564 151.051 180.714 151.055C185.882 151.081 191.05 151.078 196.218 151.047Z" fill="#A7AAD7"/>
<path d="M78.546 75.8524C79.8843 75.7014 83.0392 75.7866 84.5186 75.789L95.9579 75.8022L133.091 75.8005L183.424 75.8149L199.997 75.8037C203.019 75.803 206.062 75.7625 209.08 75.8683C213.899 76.037 217.953 80.1987 218.642 84.859C219.088 87.7988 218.346 90.7952 216.578 93.1863C214.665 95.7442 212.126 97.1302 209.004 97.5854C205.744 97.7848 202.125 97.7187 198.834 97.7162L183.028 97.6868L135.134 97.7196L97.1737 97.7214L85.386 97.7335C80.7355 97.7401 76.2677 98.4137 72.4665 95.2938C70.1102 93.3656 68.6394 90.5619 68.3924 87.5272C67.8595 81.3254 72.4376 76.3578 78.546 75.8524Z" fill="#546AD5"/>
<path d="M79.5793 76.5699C85.1105 76.4904 90.7827 76.5672 96.3259 76.5665L132.552 76.5704C151.017 76.5492 170.314 76.2536 188.722 76.6174C188.783 83.1823 188.841 90.3448 188.731 96.8903L178.383 96.9239L108.446 96.9546L88.3765 96.9507C87.1877 96.9508 85.9839 96.9824 84.7965 96.9505C80.2319 96.8278 76.2979 97.6669 72.6288 94.3814C70.5264 92.4895 69.2637 89.8384 69.1196 87.0138C68.8954 82.843 71.2886 79.2624 75.024 77.4733C76.5761 76.7298 77.8831 76.6395 79.5793 76.5699Z" fill="white"/>
<path d="M115.656 83.6117C116.001 83.6447 116.205 83.6862 116.541 83.7523C116.683 84.2596 116.678 89.3235 116.477 89.7629L116.175 89.8612C115.863 89.678 115.763 89.5778 115.52 89.3081L115.275 89.4274C114.396 89.8491 114.581 89.8812 113.509 89.7739C111.992 88.6878 111.536 86.5785 113.437 85.5605C114.148 85.1799 114.76 85.5141 115.477 85.7808C115.63 85.3308 115.632 84.1518 115.656 83.6117Z" fill="#C3C1C5"/>
<path d="M114.009 86.1517C116.025 86.2474 116.212 87.9241 114.881 89.0335C112.89 88.9913 112.856 87.3352 114.009 86.1517Z" fill="white"/>
<path d="M78.8838 83.9487C80.1867 83.9323 82.7657 83.6735 83.36 85.103C83.8859 86.3682 83.0522 87.4044 81.958 87.8801C81.2802 87.9797 80.5737 87.9994 79.8873 88.0359C79.9057 88.6783 79.9335 88.9671 79.8269 89.5911C79.5029 89.8317 79.6877 89.7596 79.2279 89.7157C78.6451 88.9868 78.8711 85.0971 78.8838 83.9487Z" fill="#C3C1C5"/>
<path d="M79.8812 84.8016C81.3732 84.789 83.1121 84.8915 82.0886 86.9074C81.1751 87.2032 80.8127 87.1727 79.8712 87.1868L79.8812 84.8016Z" fill="white"/>
<path d="M105.307 85.427C106.524 85.0822 107.789 85.7929 108.127 87.0116C108.465 88.2301 107.748 89.4913 106.528 89.8234C105.317 90.153 104.067 89.4421 103.731 88.2325C103.395 87.023 104.099 85.7693 105.307 85.427Z" fill="#C3C1C5"/>
<path d="M105.449 86.1615C107.44 86.1795 107.83 88.0315 106.284 89.1345C104.27 88.9124 104.222 87.3911 105.449 86.1615Z" fill="white"/>
<path d="M98.5986 88.38C98.8502 87.5142 99.1088 85.7807 100.138 85.6742C100.953 86.2197 101.133 87.4472 101.416 88.4279C101.628 87.6902 101.97 86.1043 102.328 85.5651C102.773 85.4672 102.757 85.4439 103.194 85.5368C103.317 85.9347 103.116 86.1764 102.934 86.6745C102.592 87.6102 102.199 89.2775 101.394 89.6764L101.094 89.5286C100.492 88.7047 100.281 87.6942 99.9607 86.6942C99.703 87.526 99.2935 89.4507 98.4774 89.7747L98.188 89.6413C97.6742 88.883 96.9419 86.4658 96.6005 85.4602C98.1648 85.4509 98.0994 86.984 98.5986 88.38ZM85.4219 85.3959C87.8483 85.4783 88.1098 86.544 87.9573 88.9314C87.9265 89.413 87.8459 89.5515 87.4872 89.8106C86.7466 89.7975 86.9542 89.3153 86.5617 89.466C85.491 89.8771 85.6053 89.9198 84.474 89.6792C82.457 87.1438 86.1921 87.236 86.6707 86.6673C86.0721 85.8374 85.3197 86.5997 84.2519 86.0965L84.2536 85.8762C84.6299 85.4776 84.8773 85.4948 85.4219 85.3959Z" fill="#C3C1C5"/>
<path d="M85.5097 87.6109C86.2352 87.674 86.6606 87.5538 86.9029 88.2776C86.7493 88.7816 86.582 88.8653 86.1867 89.2111C85.9196 89.2008 85.7706 89.1678 85.5066 89.125C84.9892 88.7128 85.1517 88.9623 84.9431 88.3912C85.1352 87.7894 84.9757 88.0556 85.5097 87.6109Z" fill="white"/>
<path d="M89.9478 85.3888C90.6282 85.4094 91.4596 85.3485 91.8737 85.9283L91.7746 86.2288C91.0602 86.5797 90.2725 85.7524 89.7753 86.527C90.1418 87.2498 92.135 87.3107 92.2358 88.7846C91.893 89.4587 91.3777 89.6611 90.6906 89.8994C90.1156 89.8501 88.7088 89.7684 88.7413 88.9855C89.6022 88.7411 90.3805 89.3445 91.083 88.7765C90.7455 88.1273 89.5539 87.7995 88.8735 86.9255C88.662 86.0241 89.1812 85.7236 89.9478 85.3888ZM93.4981 85.5271C94.2358 85.4297 95.695 85.2425 95.9963 86.068C95.3248 86.5794 94.62 85.9764 93.8164 86.4136C94.1535 87.3688 98.0329 88.2274 95.1071 89.8584C94.0908 89.8814 93.959 89.8386 93.0104 89.5158C92.7602 89.134 92.8091 89.3376 92.8574 88.8846C93.5055 88.674 93.945 89.2543 94.7613 89.1067C95.1716 88.8007 95.0797 88.9942 95.1536 88.5687C94.3832 87.6504 91.4026 87.5977 93.4981 85.5271ZM111.332 85.3345C111.656 85.502 111.548 85.4148 111.757 85.7292C111.488 86.2605 110.636 86.3481 110.399 86.8362C109.754 88.1651 111.062 89.3788 109.226 89.8791C109.174 88.9556 109.165 86.4126 109.295 85.5626L109.616 85.4262C110.058 85.5873 109.888 85.4449 110.11 85.9068L110.344 85.8949C110.768 85.4873 110.758 85.5153 111.332 85.3345Z" fill="#C3C1C5"/>
<path d="M197.3 80.2228C198.059 80.5724 198.73 81.4417 199.316 82.0799C204.237 79.0922 208.967 83.8903 205.851 88.963C206.845 90.0281 208.882 91.7487 209.557 93.0551C209.732 93.3927 209.416 93.7107 209.205 94.0229C208.087 93.6518 205.696 90.8477 204.798 89.8822C203.092 90.8921 201.181 91.1434 199.447 90.0208C198.377 89.3195 197.636 88.2155 197.391 86.9597C197.086 85.4099 197.509 84.2418 198.371 82.9886C197.74 82.3521 196.995 81.8858 196.747 81.0685C196.871 80.5151 196.831 80.6882 197.3 80.2228Z" fill="white"/>
<path d="M197.011 123.272C196.99 118.552 196.109 113.067 199.652 109.468C203.429 105.631 209.714 105.356 213.574 109.225C217.034 112.692 216.592 116.419 216.588 120.902C216.624 121.543 216.544 122.568 216.786 123.114C217.079 123.347 217.139 123.307 217.526 123.352C218.18 123.715 218.946 124.345 219.008 125.154C219.388 130.09 219.094 135.192 219.185 140.164C219.21 141.543 218.305 142.898 216.842 143.045C210.118 143.107 203.016 143.213 196.319 142.993C195.495 142.438 195.29 142.235 194.768 141.393C194.663 138.827 194.736 135.805 194.715 133.192C194.694 130.611 194.622 127.284 194.78 124.748C195.429 123.726 195.808 123.403 197.011 123.272Z" fill="#A7AAD7"/>
<path d="M197.011 123.272C196.99 118.552 196.109 113.067 199.652 109.468C203.43 105.631 209.714 105.356 213.574 109.225C217.034 112.692 216.592 116.419 216.588 120.902C216.55 121.624 216.564 122.509 216.557 123.244C215.394 123.258 214.208 123.243 213.044 123.24C213.061 122.282 213.052 121.325 213.022 120.368C212.962 121.31 212.929 122.253 212.922 123.196C208.814 123.204 204.638 123.173 200.535 123.235L197.011 123.272Z" fill="#EBECF6"/>
<path d="M197.011 123.272C196.99 118.552 196.109 113.067 199.652 109.468C203.43 105.631 209.714 105.356 213.574 109.225C217.034 112.692 216.592 116.419 216.588 120.902C216.55 121.624 216.564 122.509 216.557 123.244C215.394 123.258 214.208 123.243 213.044 123.24C213.061 122.282 213.052 121.325 213.022 120.368C213.051 117.456 213.424 114.047 211.205 111.863C209.976 110.653 208.491 110.044 206.771 110.058C205.006 110.058 203.323 110.8 202.13 112.102C199.848 114.611 200.535 119.736 200.535 123.235L197.011 123.272Z" fill="#2D2E4E"/>
<path d="M217.526 123.352C218.18 123.715 218.946 124.345 219.008 125.154C219.388 130.09 219.094 135.192 219.185 140.164C219.21 141.543 218.305 142.898 216.842 143.045C210.118 143.107 203.016 143.213 196.32 142.993C195.495 142.438 195.29 142.235 194.768 141.393C195.477 141.353 197.031 141.431 197.765 141.483C206.911 142.125 214.782 137.225 216.8 128.019C217.063 126.821 217.133 124.395 217.526 123.352Z" fill="#8385C5"/>
<path d="M206.024 129.113C209.097 128.806 210.475 131.323 208.022 133.496C208.209 134.465 209.038 136.834 208.545 137.632L207.879 137.673L204.642 137.669C204.837 136.411 205.237 134.817 205.519 133.549C203.653 131.94 203.919 130.281 206.024 129.113Z" fill="#2D2E4E"/>
<path d="M78.0524 103.56C85.4698 103.287 94.347 103.559 101.921 103.562L144.526 103.481C145.233 103.481 145.64 103.646 146.133 104.129C146.34 104.672 146.329 104.41 146.22 104.938C145.88 105.276 145.911 105.263 145.441 105.353C130.382 105.462 115.322 105.469 100.263 105.373L85.6939 105.392C84.0329 105.396 78.6583 105.743 77.5349 104.898C77.2823 104.42 77.3135 104.658 77.3664 104.174C77.6357 103.784 77.6415 103.813 78.0524 103.56ZM77.7209 109.143C80.4136 109.091 103.595 108.808 104.293 109.307C104.555 109.495 104.703 109.717 104.718 110.044C104.735 110.439 104.531 110.671 104.294 110.947C102.665 111.117 100.741 111.038 99.0747 111.035L91.2585 111.045L82.6563 111.042C81.3441 111.036 79.1079 111.077 77.8774 110.915C77.4858 110.661 77.4325 110.676 77.265 110.235C77.2992 109.686 77.4138 109.592 77.7209 109.143Z" fill="#CCCFEC"/>
<path d="M87.6439 62.3922C88.4334 62.2287 89.2548 62.4205 89.8902 62.9168C90.5256 63.413 90.9107 64.1635 90.9432 64.9692C90.9964 66.2934 90.0959 67.4668 88.8027 67.7575C87.315 68.0919 85.84 67.1496 85.5181 65.6591C85.1962 64.1687 86.1509 62.7016 87.6439 62.3922Z" fill="#3BA6AB"/>
<path d="M69.0387 62.3903C70.5139 62.0648 71.9744 62.9941 72.3046 64.4684C72.6348 65.9426 71.7102 67.4061 70.237 67.7409C68.7572 68.0773 67.2857 67.1476 66.9539 65.6667C66.6223 64.1858 67.5567 62.7172 69.0387 62.3903Z" fill="#F3695C"/>
<path d="M78.4595 62.3952C79.9281 62.0854 81.3713 63.0194 81.69 64.4862C82.0086 65.9527 81.0833 67.4014 79.6185 67.7291C78.1413 68.0594 76.6774 67.1243 76.356 65.6452C76.0346 64.1659 76.9785 62.7077 78.4595 62.3952Z" fill="#F7BA12"/>
<path d="M121.106 109.15C123.908 109.014 126.84 109.111 129.656 109.055C130.593 109.036 132.238 109.001 132.377 110.145C132.206 110.602 132.153 110.605 131.805 110.934C130.338 111.05 121.549 111.295 120.796 110.708C120.634 110.582 120.591 110.357 120.583 110.161C120.564 109.714 120.837 109.451 121.106 109.15ZM216.696 113.353C217.44 113.304 218.087 113.098 218.51 113.786C218.498 114.28 218.513 114.294 218.358 114.787C217.844 114.849 217.278 114.992 216.845 114.764C216.565 114.358 216.668 113.87 216.696 113.353ZM84.5065 141.071C84.6729 141.117 84.8857 141.197 85.0527 141.256C85.3081 141.642 85.2033 142.277 85.1807 142.778C84.8564 142.751 84.9428 142.761 84.6317 142.654C84.3838 142.201 84.4829 141.609 84.5065 141.071Z" fill="#CCCFEC"/>
<path d="M225.946 113.977C226.51 113.922 226.558 113.92 227.118 113.981L227.236 114.183L227.064 114.435C226.626 114.445 226.018 114.519 225.726 114.194L225.946 113.977ZM222.68 114.119C223.376 113.986 223.883 113.877 224.515 114.23C223.692 114.443 223.407 114.523 222.68 114.119Z" fill="#A7AAD7"/>
<path d="M123.029 179.16C123.723 179.436 125.39 180.61 126.336 181.074C135.257 185.077 147.077 188.279 156.516 184.655C157.032 184.454 157.545 184.243 158.055 184.022C163.007 190.922 167.31 198.146 171.156 205.712C174.142 211.586 174.039 212.83 174.142 219.223C174.213 225.433 174.109 231.643 173.831 237.846C173.728 240.23 173.663 243.408 173.44 245.703C172.986 245.835 172.52 245.977 172.063 246.092L172.135 248.123C173.917 249.207 175.117 250.912 177.112 251.879C179.53 253.05 182.038 253.275 184.434 254.371C184.906 254.596 185.362 255.701 185.59 256.209C186.832 256.25 195.954 258.102 192.486 260.613C191.981 260.979 189.506 261.804 188.81 261.972C183.21 263.316 177.348 263.933 171.614 264.444C160.504 265.347 149.356 265.749 138.208 265.649C125.974 265.642 113.405 265.26 101.26 263.617C97.4417 262.997 93.3765 262.648 89.9135 260.795C89.2947 260.549 88.2165 259.424 89.0152 258.822C91.3149 257.089 96.4119 255.804 99.26 255.651C99.8953 254.409 102.319 249.529 102.941 248.722C103.395 247.316 103.885 245.921 104.411 244.54C103.918 244.084 103.483 243.6 103.026 243.11C104.995 235.813 107.745 227.772 111.03 220.981C111.756 219.48 112.575 218.092 113.394 216.671C114.005 215.61 115.617 213.307 115.888 212.226C116.595 209.399 117.016 206.277 117.647 203.408C119.411 195.391 120.769 187.033 123.029 179.16Z" fill="white"/>
<path d="M123.029 179.16C123.723 179.436 125.39 180.61 126.336 181.074C135.257 185.077 147.077 188.279 156.516 184.655C157.032 184.454 157.545 184.243 158.056 184.022C163.007 190.922 167.31 198.146 171.156 205.712C174.142 211.586 174.039 212.83 174.142 219.223C174.213 225.433 174.109 231.643 173.831 237.846C173.728 240.23 173.663 243.408 173.44 245.703C172.986 245.835 172.52 245.977 172.063 246.092L172.135 248.123C169.422 248.355 169.606 249.615 168.124 251.243C167.299 251.34 166.77 251.416 165.928 251.388C164.633 250.907 164.524 250.519 164.132 249.206C164.133 248.896 164.073 248.273 164.05 247.943C163.963 247.489 163.879 247.036 163.8 246.582L162.527 246.188C161.934 243.837 161.643 241.111 161.272 238.705C160.104 231.151 159.739 224.724 160.237 217.129L160.034 216.848C156.097 212.227 151.85 207.793 147.845 203.219C145.295 200.308 142.989 197.065 140.435 194.213C139.29 196.36 138.057 199.344 137.05 201.606C134.952 206.423 132.774 211.205 130.516 215.949C129.721 217.588 128.833 219.261 127.95 220.856C123.041 229.719 118.071 238.701 112.517 247.151C112.452 247.25 111.46 247.245 111.307 247.247C108.535 246.828 106.799 246.042 104.411 244.54C103.918 244.084 103.483 243.6 103.026 243.11C104.995 235.813 107.745 227.772 111.03 220.981C111.756 219.48 112.575 218.092 113.394 216.671C114.005 215.61 115.617 213.307 115.888 212.226C116.595 209.399 117.016 206.277 117.647 203.408C119.411 195.391 120.769 187.033 123.029 179.16Z" fill="#2D2E4E"/>
<path d="M171.969 246.174L172.063 246.092L172.135 248.123C169.422 248.355 169.606 249.615 168.124 251.243C167.299 251.34 166.77 251.416 165.928 251.388C164.633 250.907 164.524 250.519 164.132 249.206C164.133 248.896 164.073 248.273 164.05 247.943C163.963 247.489 163.879 247.036 163.8 246.582C166.528 246.866 169.283 246.728 171.969 246.174Z" fill="#FA9A85"/>
<path d="M163.8 246.582C166.528 246.866 169.283 246.728 171.969 246.174C171.942 246.596 172.003 246.89 171.796 247.172C169.944 247.617 165.925 248.231 164.05 247.943C163.963 247.489 163.879 247.036 163.8 246.582Z" fill="#F3695C"/>
<path d="M160.034 216.848C160.32 216.415 160.55 215.97 160.989 215.71C160.988 216.186 160.539 216.693 160.237 217.129L160.034 216.848ZM148.424 190.979L148.674 191.028C148.307 191.506 142.051 193.809 141.048 194.196L140.78 194.19L140.766 194.04C141.799 193.416 147.127 191.419 148.424 190.979Z" fill="#4E5285"/>
<path d="M104.411 244.54C106.799 246.042 108.535 246.828 111.307 247.247C110.884 248.063 110.376 249.522 110.025 250.09C110.363 251.407 110.552 252.851 110.761 254.202C112.565 253.761 120.147 253.413 122.383 253.335C135.461 252.87 149.638 252.595 162.669 253.545C162.894 251.783 162.949 250.605 164.132 249.206C164.524 250.519 164.632 250.907 165.928 251.388C166.77 251.416 167.299 251.34 168.124 251.243C169.606 249.615 169.422 248.355 172.135 248.123C173.917 249.207 175.117 250.912 177.112 251.879C179.53 253.05 182.038 253.275 184.434 254.371C184.906 254.596 185.362 255.701 185.59 256.209C186.832 256.25 195.954 258.102 192.486 260.613C191.981 260.979 189.506 261.804 188.81 261.972C183.21 263.316 177.348 263.933 171.614 264.444C160.504 265.347 149.356 265.749 138.208 265.649C125.974 265.642 113.405 265.26 101.26 263.617C97.4417 262.997 93.3765 262.648 89.9135 260.795C89.2947 260.549 88.2165 259.424 89.0152 258.822C91.3149 257.089 96.4119 255.804 99.26 255.651C99.8953 254.409 102.319 249.529 102.941 248.722C103.395 247.316 103.885 245.921 104.411 244.54Z" fill="#EBECF6"/>
<path d="M104.411 244.54C106.799 246.042 108.535 246.828 111.307 247.247C110.884 248.063 110.376 249.522 110.025 250.09C110.364 251.407 110.552 252.851 110.761 254.202C110.944 255.226 111.128 256.413 111.371 257.41C107.257 260.196 102.961 259.127 98.5752 257.774C98.7558 257.037 99.0093 256.364 99.26 255.651C99.8954 254.409 102.319 249.529 102.941 248.722C103.395 247.316 103.885 245.921 104.411 244.54Z" fill="#2D2E4E"/>
<path d="M104.411 244.54C106.799 246.042 108.535 246.828 111.307 247.247C110.884 248.063 110.376 249.522 110.025 250.09C108.376 246.838 105.67 247.463 102.941 248.722C103.395 247.316 103.885 245.921 104.411 244.54Z" fill="#FA9A85"/>
<path d="M168.124 251.243C169.606 249.615 169.422 248.355 172.135 248.123C173.917 249.207 175.118 250.912 177.112 251.879C179.53 253.05 182.038 253.275 184.434 254.371C184.906 254.596 185.362 255.701 185.59 256.209L185.646 256.684C179.796 258.348 171.541 257.248 165.583 256.456C165.606 254.347 165.808 253.365 165.928 251.388C166.77 251.416 167.299 251.34 168.124 251.243Z" fill="#2D2E4E"/>
<path d="M164.132 249.206C164.524 250.519 164.632 250.907 165.928 251.388C165.808 253.366 165.606 254.347 165.583 256.456C171.541 257.248 179.796 258.348 185.646 256.684C185.768 257.303 185.757 257.903 185.775 258.535L185.642 258.583C181.263 260.141 172.541 259.373 167.854 258.954C166.511 258.834 163.942 258.701 162.82 258.173C162.368 257.601 162.693 254.682 162.669 253.545C162.894 251.783 162.949 250.605 164.132 249.206ZM98.5752 257.774C102.961 259.127 107.257 260.196 111.37 257.41C111.505 258.353 111.559 258.832 111.574 259.786C108.263 261.492 103.821 261.288 100.286 260.45C98.5383 260.035 98.4285 259.298 98.5752 257.774Z" fill="#25243D"/>
<path d="M196.218 151.047C196.529 150.09 196.605 149.449 197.767 149.56C198.394 149.957 198.515 150.345 198.699 151.048L198.714 151.768C198.298 153.219 197.935 153.823 197.121 155.104L197.197 155.23C199.347 155.161 207.996 154.239 209.287 154.711C209.796 155.23 209.903 155.649 209.391 156.232C208.136 156.694 204.673 156.852 203.081 157.075C203.742 158.086 203.939 158.635 203.067 159.616C203.5 160.429 203.466 161.231 202.973 162.031C202.852 163.122 202.766 163.766 201.687 164.209L201.466 164.288C199.138 165.213 195.751 165.139 193.355 164.443C191.405 165.448 189.578 166.686 187.66 167.76C183.516 170.079 179.215 172.193 174.614 173.441C173.183 173.829 171.518 174.322 170.047 173.873C167.784 172.858 166.402 168.418 165.36 166.321C165.33 166.233 165.301 166.143 165.271 166.054C167.34 165.525 169.642 164.413 171.533 163.416C172.617 162.855 173.192 162.465 174.187 161.757C174.618 161.356 175.047 160.952 175.473 160.546C174.561 157.635 173.538 154.645 172.579 151.74C180.364 151.703 188.149 151.709 195.933 151.758L196.218 151.047Z" fill="#FA9A85"/>
<path d="M172.579 151.74C180.364 151.703 188.149 151.709 195.933 151.758C194.161 155.048 192.49 154.373 191.375 158.655C186.743 160.318 182.578 161.97 177.685 162.773C177.128 162.865 175.482 163.375 175.074 163.387C174.79 162.768 174.53 162.338 174.187 161.757C174.618 161.356 175.047 160.952 175.473 160.546C174.561 157.635 173.538 154.645 172.579 151.74Z" fill="white"/>
<path d="M171.533 163.416C172.617 162.855 173.192 162.465 174.187 161.757C174.53 162.337 174.79 162.768 175.074 163.387C172.934 164.45 170.497 165.722 168.902 167.546C170.782 170.371 172.704 170.356 175.846 170.137C181.935 169.712 187.078 166.348 192.601 164.174C192.935 164.042 193.126 164.251 193.355 164.443C191.405 165.448 189.578 166.686 187.66 167.76C183.516 170.079 179.215 172.192 174.614 173.441C173.183 173.829 171.518 174.322 170.047 173.873C167.784 172.858 166.402 168.418 165.36 166.321C165.33 166.233 165.301 166.143 165.271 166.054C167.34 165.525 169.642 164.413 171.533 163.416Z" fill="#F3695C"/>
<path d="M202.819 161.977C201.729 161.211 199.482 162.181 198.595 160.803C198.556 160.311 198.544 160.345 198.768 159.906C199.508 159.342 201.745 159.753 202.829 159.642L203.067 159.616C203.5 160.429 203.466 161.231 202.973 162.031C202.852 163.122 202.766 163.766 201.687 164.209C201.122 163.53 199.689 163.749 198.775 162.886C198.616 162.332 198.624 162.616 198.845 162.006C199.496 161.55 201.6 162.077 202.549 162.219L202.819 161.977Z" fill="#FA9A85"/>
<path d="M201.466 164.288C200.555 164.043 198.543 163.682 198.226 162.712C198.398 162.284 198.437 162.221 198.519 161.754C198.087 160.608 198.167 160.727 198.367 159.546C198.211 159.157 198.146 158.954 198.031 158.56C198.468 157.002 202.147 156.431 203.057 157.399L202.991 157.496C201.663 157.155 198.747 157.155 198.541 158.954C199.364 159.874 202.251 158.514 203.067 159.616L202.829 159.642C201.745 159.753 199.508 159.342 198.768 159.906C198.544 160.345 198.556 160.311 198.595 160.803C199.482 162.181 201.729 161.211 202.819 161.978L202.549 162.219C201.6 162.077 199.496 161.55 198.845 162.006C198.624 162.616 198.616 162.332 198.775 162.886C199.689 163.749 201.122 163.53 201.687 164.209L201.466 164.288ZM197.121 155.104L197.197 155.23C197.62 156.658 197.99 157.717 197.378 159.204C197.063 159.969 194.995 161.668 194.321 161.308C194.822 160.747 196.013 160.53 196.505 159.789C197.706 157.984 197.066 156.89 196.831 155.288L197.121 155.104Z" fill="#F3695C"/>
<path d="M52.4576 32.1053C52.4461 32.0577 52.4345 32.0102 52.423 31.9627C52.2929 29.0463 51.9224 25.6444 53.5451 23.1395C54.5922 21.4998 56.2635 20.359 58.172 19.9813C60.3634 19.5594 62.1301 20.0969 63.9285 21.3002C68.1007 24.8691 66.4127 27.8317 66.8857 32.2922C67.319 32.3993 67.7475 32.5737 68.0338 32.9292C68.2778 33.2321 68.4043 33.6322 68.456 34.0134C68.5793 34.9254 68.4209 35.933 68.4254 36.8601C68.4374 39.3323 68.7108 42.049 68.4145 44.4956C68.3391 45.1177 68.1239 45.6458 67.5849 46.0033C67.2736 46.2097 66.9943 46.2291 66.628 46.2599C64.0475 46.4772 61.3033 46.2997 58.7078 46.2986C56.5238 46.2976 53.9315 46.558 51.796 46.1818C51.3709 46.1069 51.1315 45.9324 50.9144 45.5548C50.5631 44.9442 50.4339 34.0624 50.786 33.2193C50.9996 32.708 51.4197 32.5374 51.8915 32.3318L52.4576 32.1053Z" fill="#2D2E4E"/>
<path d="M52.4576 32.1053C52.4461 32.0577 52.4346 32.0102 52.423 31.9627C52.293 29.0463 51.9224 25.6444 53.5451 23.1395C54.5922 21.4998 56.2635 20.359 58.1721 19.9813C60.3634 19.5594 62.1301 20.0969 63.9286 21.3002C68.1008 24.8691 66.4127 27.8317 66.8858 32.2922C66.384 32.3664 64.8201 32.3342 64.2334 32.3345C61.6694 32.35 59.1054 32.3467 56.5415 32.3251C55.9865 32.3457 55.3618 32.3266 54.8006 32.323C53.7896 32.3019 52.9003 32.2895 51.8915 32.3318L52.4576 32.1053Z" fill="white"/>
<path d="M52.4576 32.1053C52.4461 32.0577 52.4346 32.0102 52.423 31.9627C52.293 29.0463 51.9224 25.6444 53.5451 23.1395C54.5922 21.4998 56.2635 20.359 58.1721 19.9813C60.3634 19.5594 62.1301 20.0969 63.9286 21.3002C63.2737 22.1171 62.9827 22.3971 62.1997 23.1015C57.8908 21.0555 54.8879 23.4802 54.9404 27.9719C54.9561 29.3262 54.9684 30.8195 54.9238 32.1718C55.4153 32.215 56.0679 32.2517 56.5415 32.3251C55.9865 32.3457 55.3618 32.3266 54.8006 32.323C53.7896 32.3019 52.9003 32.2895 51.8915 32.3318L52.4576 32.1053Z" fill="#CCCFEC"/>
<path d="M54.7955 28.359C54.8131 29.6802 54.8148 31.0016 54.8006 32.3229C53.7896 32.3018 52.9003 32.2895 51.8915 32.3318L52.4576 32.1052C52.8406 31.6894 54.5302 28.8754 54.7955 28.359ZM63.9286 21.3002C68.1008 24.8691 66.4127 27.8316 66.8858 32.2921C66.384 32.3664 64.8201 32.3342 64.2334 32.3345C64.3022 28.9535 64.9401 25.5359 62.1997 23.1014C62.9827 22.397 63.2737 22.1171 63.9286 21.3002Z" fill="#A7AAD7"/>
<path d="M58.8016 36.4446C59.0787 36.4137 59.3564 36.383 59.6355 36.3762C60.176 36.3618 60.6965 36.5794 61.0661 36.974C61.9685 37.9378 61.2738 38.9717 60.5099 39.6917C60.6757 40.5249 60.9921 41.9137 60.9626 42.723L60.7394 42.8711C59.8271 42.8749 58.916 42.8387 58.0039 42.8106C58.2391 41.7992 58.4131 40.7113 58.5948 39.6838C57.5567 38.3609 57.3594 37.5919 58.8016 36.4446Z" fill="white"/>
<path d="M230.065 159.078C231.252 159.022 240.979 158.718 241.217 159.511C242.16 162.661 241.59 167.257 241.578 170.592C241.577 171.124 241.259 171.406 240.882 171.693C239.061 171.797 237.213 171.738 235.389 171.748C233.82 171.755 232.169 171.858 230.61 171.71C230.351 171.686 229.8 171.647 229.645 171.418C228.971 170.423 229.074 161.634 229.378 160.102C229.48 159.587 229.639 159.372 230.065 159.078Z" fill="#EBECF6"/>
<path d="M234.728 161.037C237.203 160.886 239.798 162.443 237.646 165.154C236.867 166.136 236.735 165.615 236.341 167.058C235.987 167.243 235.148 167.144 234.703 167.124C234.783 166.666 234.887 166.2 234.984 165.743C235.568 164.849 236.105 164.689 236.589 163.886C236.617 163.391 236.652 163.371 236.431 162.911C235.436 162.224 234.381 162.863 233.715 163.706C233.221 163.73 232.734 163.409 232.239 163.177C233.017 161.959 233.408 161.573 234.728 161.037ZM235.046 167.957C235.548 167.95 235.669 167.937 236.175 168.051C236.86 168.654 236.735 169.1 236.422 169.858L236.066 169.952C235.605 169.98 235.364 170.023 234.91 169.907C234.224 169.29 234.316 168.846 234.672 168.076L235.046 167.957Z" fill="#2D2E4E"/>
<path d="M240.168 93.4131C241.675 93.3331 248.476 93.1475 249.545 93.584C249.917 94.0403 250.141 95.1666 250.093 95.7232C249.936 97.5485 250.635 102.699 249.518 103.915C246.558 104.022 242.751 103.991 239.799 103.896C239.671 101.393 239.608 98.8879 239.61 96.3823C239.614 95.5238 239.572 94.0032 240.168 93.4131Z" fill="#EBECF6"/>
<path d="M244.112 94.948C244.387 94.9265 244.661 94.9196 244.935 94.9278C249.834 95.0964 246.07 100.665 244.36 99.9402C244.143 99.4266 244.232 99.5048 244.32 98.8582L244.913 98.3052C245.505 97.7498 245.969 97.1792 245.434 96.383C244.366 96.0335 243.793 96.6597 243.1 97.3486C242.792 97.1958 242.277 96.8791 241.964 96.6977C242.754 95.7133 242.966 95.4462 244.112 94.948ZM244.29 100.742C244.806 100.703 244.858 100.683 245.385 100.769C245.959 101.247 246.171 101.866 245.628 102.487C244.703 102.539 244.223 102.673 243.923 101.637C244.02 101.178 243.997 101.118 244.29 100.742Z" fill="#C3C1C5"/>
<path d="M33.3193 62.5961C34.8574 62.4805 41.367 62.2942 42.6761 62.8298C43.4766 63.7744 43.0953 67.1648 43.1424 68.4824C43.1855 69.6805 43.4709 72.052 42.6543 72.9588C41.0148 73.1084 35.0105 73.2348 33.2265 72.8253C33.1049 72.8139 32.9482 72.21 32.9499 72.1313C32.991 70.2741 32.4174 63.8654 33.3193 62.5961Z" fill="#EBECF6"/>
<path d="M37.7429 64.0051C42.8457 64.2368 39.2888 69.3087 37.9954 69.5152C37.5588 69.2881 37.7485 69.4449 37.4694 68.9632C37.4158 68.4502 37.5491 68.3007 37.7799 67.8683C38.0185 67.6477 38.2543 67.4239 38.4872 67.1973C38.9396 66.7516 38.9847 66.6743 38.9887 66.0978C37.7233 63.4566 36.7911 67.6249 35.4922 66.1336C35.3818 64.8595 36.7101 64.2633 37.7429 64.0051ZM37.2425 70.131L37.4334 70.1304C37.969 70.1237 38.4542 70.0265 38.8649 70.3311C39.113 70.7517 39.0399 71.3126 39.0331 71.824C38.4976 71.8515 37.8454 71.9667 37.4137 71.7041C37.1306 71.2789 37.2283 70.6698 37.2425 70.131Z" fill="#C3C1C5"/>
<path d="M124.187 24.0775C124.852 24.1092 125.283 24.3319 125.906 24.5652C126.287 24.2731 126.439 24.0491 126.891 24.1733C127.327 24.723 127.159 25.9564 127.184 26.6626C127.249 28.4796 126.701 30.6804 124.421 30.429C123.574 30.3355 123.117 30.3204 122.564 29.6354C123.371 28.6329 124.285 29.9652 125.48 29.197C125.769 28.8004 125.802 28.8062 125.886 28.3058C125.549 28.159 122.88 29.4739 122.436 27.0997C122.167 25.6629 122.689 24.4448 124.187 24.0775Z" fill="#2D2E4E"/>
<path d="M124.367 25.1265C125.044 24.9363 125.748 25.3265 125.946 26.0015C126.144 26.6765 125.762 27.385 125.089 27.5903C124.647 27.725 124.167 27.6119 123.831 27.2941C123.496 26.9763 123.357 26.5028 123.468 26.0544C123.579 25.6058 123.922 25.2514 124.367 25.1265Z" fill="white"/>
<path d="M178.807 22.2853C178.888 22.3304 179.08 22.4914 179.162 22.556C179.387 23.8957 179.301 26.8282 179.269 28.303C179.262 28.6303 179.055 28.7187 178.838 28.8512C178.349 28.8422 177.929 28.3351 177.837 28.371C176.752 28.7966 176.593 28.9496 175.44 28.5846C173.288 26.7061 174.975 22.8033 177.878 24.5818L178.026 24.5242C178.315 23.7167 177.907 23.8579 178.021 22.8469C178.322 22.3632 178.176 22.5222 178.807 22.2853Z" fill="#2D2E4E"/>
<path d="M176.607 25.0005C178.421 25.3903 178.684 27.0007 177.013 27.9187C175.291 27.6392 175.056 25.902 176.607 25.0005Z" fill="white"/>
<path d="M202.586 32.2321C205.033 32.0853 207.547 33.7837 206.013 36.4912C205.542 37.3207 203.993 37.7723 203.984 38.9565C203.979 39.463 203.099 39.6309 202.694 39.5664C201.863 39.0126 202.047 38.5331 202.364 37.7322L202.424 37.5817C203.347 36.7369 205.21 35.7093 204.192 34.3178C202.84 33.5765 202.05 34.19 201.262 35.2895C200.692 35.0634 200.114 34.8014 199.55 34.5559C200.506 33.1875 200.915 32.6528 202.586 32.2321Z" fill="#546AD5"/>
<path d="M141.712 24.0755C142.687 24.1326 143.298 24.2067 143.925 25.0808C144.577 25.9759 144.328 27.9691 143.307 28.5059C142.394 28.9854 141.605 28.7028 140.708 28.4781L140.626 28.6755C140.65 29.194 140.75 29.7648 140.488 30.1795C139.983 30.2717 140.217 30.3032 139.758 30.0889C139.136 29.0497 139.679 25.7589 139.551 24.4234C139.531 24.2132 139.755 24.1682 139.943 24.0648C140.37 24.17 140.427 24.3223 140.698 24.6464C141.038 24.4278 141.356 24.2642 141.712 24.0755Z" fill="#2D2E4E"/>
<path d="M141.442 25.0076C143.376 25.1209 143.72 26.9232 142.175 27.8648C140.339 27.5457 140.01 26.0894 141.442 25.0076Z" fill="white"/>
<path d="M38.1324 100.432C39.6105 100.377 41.5576 100.613 42.1093 102.382C42.715 104.323 40.9286 105.173 39.9847 106.417C39.9909 106.409 39.7548 107.228 39.7313 107.313C39.3149 107.583 39.2981 107.641 38.7955 107.668C37.8627 107.399 37.9684 106.755 38.1282 106.024L38.1702 105.839C38.8392 104.851 40.2746 104.24 40.2591 103.026C40.2477 102.126 38.9562 102.056 38.3157 102.246C37.6391 102.447 37.4197 102.919 37.0891 103.478C36.4871 103.261 36.0229 103.045 35.4469 102.775C36.3015 101.436 36.6595 100.988 38.1324 100.432ZM129.577 24.2588C130.808 23.7458 132.222 24.3294 132.733 25.5616C133.245 26.7937 132.659 28.2069 131.426 28.7162C130.196 29.2246 128.786 28.6404 128.276 27.4108C127.766 26.1813 128.348 24.7708 129.577 24.2588Z" fill="#2D2E4E"/>
<path d="M130.386 25.1385C131.111 25.0657 131.761 25.5868 131.848 26.3106C131.935 27.0344 131.427 27.6948 130.705 27.7959C130.225 27.863 129.747 27.6658 129.453 27.2799C129.16 26.8942 129.099 26.3802 129.292 25.936C129.485 25.4919 129.904 25.1869 130.386 25.1385Z" fill="white"/>
<path d="M167.133 24.2354C167.944 23.9048 168.87 24.04 169.553 24.5885C170.235 25.137 170.567 26.0126 170.419 26.8757C170.27 27.7387 169.665 28.4535 168.839 28.7427C167.605 29.1747 166.251 28.5439 165.788 27.321C165.326 26.0981 165.922 24.7292 167.133 24.2354Z" fill="#2D2E4E"/>
<path d="M167.594 24.9894C169.418 25.0971 169.872 26.7324 168.442 27.8318C166.383 27.8891 166.317 26.1761 167.594 24.9894Z" fill="white"/>
<path d="M114.956 24.2507C116.17 23.7882 117.532 24.3751 118.029 25.5754C118.527 26.7755 117.98 28.1539 116.794 28.686C115.996 29.0443 115.067 28.9405 114.368 28.415C113.668 27.8895 113.31 27.0253 113.432 26.1592C113.555 25.2933 114.138 24.5622 114.956 24.2507Z" fill="#2D2E4E"/>
<path d="M115.518 25.1661C116.206 25.0155 116.892 25.4226 117.089 26.0979C117.287 26.7732 116.927 27.486 116.267 27.729C115.798 27.9016 115.272 27.7984 114.902 27.4613C114.533 27.1241 114.383 26.6092 114.513 26.1263C114.642 25.6436 115.03 25.2732 115.518 25.1661Z" fill="white"/>
<path d="M69.934 173.828C72.1518 173.725 74.5828 175.02 73.255 177.616C72.7082 178.685 71.7403 178.535 71.381 180.044L71.3529 180.166C70.7905 180.546 71.084 180.463 70.4655 180.502C69.592 180.032 69.7448 179.553 69.9887 178.747L70.0442 178.568C70.7683 177.701 72.3103 177.033 71.6236 175.701C70.4594 174.887 69.4301 175.75 68.7276 176.646C68.2553 176.46 67.785 176.251 67.3184 176.05C68.0776 174.755 68.4934 174.285 69.934 173.828ZM160.429 27.2683C160.647 26.4392 160.954 24.4854 161.869 24.2767C162.627 24.771 162.913 26.4097 163.159 27.3386C163.509 26.4024 163.714 24.7331 164.37 24.1446C164.814 24.0818 164.62 24.0344 164.978 24.2615C165.18 24.7305 165.123 24.5675 164.884 25.2075C164.568 26.0775 164.119 28.5919 163.138 28.6902C162.364 28.1749 162.028 26.5008 161.76 25.5673C161.525 26.4693 161.197 28.8121 160.124 28.7654C159.407 28.1204 158.753 25.335 158.347 24.1784C158.641 24.1805 158.905 24.1941 159.197 24.2086C159.924 24.6879 160.114 26.2534 160.429 27.2683ZM146.465 24.0742C147.524 24.0334 148.407 23.9961 148.937 25.0601C149.442 26.0739 149.396 27.5137 149.112 28.5777C148.778 28.8632 148.97 28.7793 148.501 28.8007C147.25 27.8969 147.826 29.158 145.606 28.6951C145.432 28.5303 145.283 28.34 145.164 28.1309C144.914 27.6975 144.851 27.3738 144.977 26.8988C145.623 25.9818 146.731 26.1259 147.886 25.6994L147.961 25.4821C147.106 24.7175 146.748 25.1507 145.707 25.1255C145.328 24.8255 145.451 25.011 145.313 24.5557C145.626 24.2418 145.99 24.2145 146.465 24.0742Z" fill="#2D2E4E"/>
<path d="M146.413 26.6163C146.527 26.613 146.642 26.611 146.756 26.6104C147.347 26.6076 147.59 26.6009 147.976 26.9877C148.047 27.3971 147.888 27.5784 147.686 27.9506C146.933 28.0224 146.589 28.1539 146.111 27.5206C146.111 27.0198 146.149 27.0253 146.413 26.6163Z" fill="white"/>
<path d="M108.523 22.6322C109.281 22.6279 112.472 22.5085 112.932 22.7575C113.02 23.1926 113.021 23.1607 112.898 23.5872C111.926 24.0136 110.436 23.1386 109.702 24.0575C109.665 24.492 109.594 24.7882 109.758 25.1875C110.185 25.4175 112.08 25.3535 112.693 25.3567C112.656 25.9918 112.76 25.9026 112.439 26.3189C111.593 26.6036 110.67 26.4249 109.719 26.3739C109.723 27.0813 109.935 28.1248 109.56 28.6385C109.125 28.8242 109.153 28.8044 108.681 28.7342C108.317 28.0566 108.506 23.7097 108.523 22.6322Z" fill="#2D2E4E"/>
<path d="M242.776 46.7079C248.69 46.8832 243.782 53.3419 242.411 52.2998C242.248 51.8732 242.364 51.659 242.484 51.2055L242.533 51.0251C243.138 50.3868 245.299 48.8284 243.605 48.0274C242.702 48.0157 242.165 48.5376 241.442 49.067C240.955 49.0051 240.877 49.043 240.503 48.7274C240.384 47.7284 241.94 46.9074 242.776 46.7079ZM39.3586 147.101C45.7335 146.828 41.0081 153.201 39.5591 152.542C39.34 152.003 39.4486 152.055 39.5949 151.359C40.1071 150.699 42.3595 149.039 40.589 148.26C39.7027 148.285 39.0987 148.852 38.4051 149.377C37.8104 149.31 37.9143 149.414 37.5421 149.086C37.5143 148.24 38.7248 147.462 39.3586 147.101Z" fill="#EBECF6"/>
<path d="M155.648 24.0754C156.469 24.113 157.136 24.0196 157.714 24.6655C157.586 25.2952 156.067 24.8335 155.431 25.4417C156.023 26.1035 157.942 26.0387 157.998 27.1843C158.072 28.7255 156.859 28.8162 155.689 28.8596C155.135 28.6798 154.807 28.6232 154.361 28.2684C154.254 27.7987 154.204 27.9994 154.416 27.6324C155.32 27.4241 156.229 28.3043 156.832 27.6526C156.412 26.975 155.15 26.8065 154.398 25.7287C154.236 24.7542 154.822 24.4156 155.648 24.0754ZM151.298 24.0696C151.937 24.0398 152.892 24.0985 153.447 24.437C153.591 24.8372 153.593 24.6442 153.447 25.0352C152.627 25.378 152.044 24.6483 151.338 25.2418C151.664 25.8784 156.313 27.6455 152.19 28.8776C151.57 28.8401 150.252 28.7232 150.06 28.0468C150.768 26.9392 151.369 28.2319 152.445 27.7831L152.553 27.4701C152.28 26.9025 147.825 25.6497 151.298 24.0696ZM134.026 22.885C134.47 22.8649 134.882 22.7759 135.225 23.01C135.135 24.8096 135.755 23.9127 136.392 24.4353L136.396 24.8874C135.828 25.1896 135.077 25.6248 135.119 26.3967C135.22 28.2371 135.964 27.3995 136.673 28.1435C136.371 28.6741 136.201 28.8371 135.565 28.8284C133.5 28.8003 134.367 26.4151 134.005 25.1619C134.057 25.3445 133.506 24.891 133.511 24.8964L133.614 24.4575C134.303 23.8951 134.083 23.7434 134.026 22.885ZM121.589 23.9986L121.837 24.1852C122.24 25.208 120.996 25.214 120.603 25.9252C120.361 26.3625 120.535 27.7774 120.346 28.5965C119.984 28.8073 119.668 28.7084 119.234 28.6591C119.261 27.5162 118.889 24.9275 119.69 24.1987C120.144 24.1124 119.947 24.0705 120.311 24.2647L120.446 24.8117C120.883 24.4516 121.105 24.2955 121.589 23.9986ZM173.78 24.0088C174.866 25.1108 172.738 25.391 172.676 25.9528C172.579 26.8443 172.612 27.6372 172.385 28.5782C172.007 28.922 172.219 28.8426 171.744 28.8666C171.572 28.7269 171.489 28.653 171.332 28.5057C171.382 27.4185 171.041 24.9545 171.73 24.2405C172.147 24.1241 171.948 24.0997 172.34 24.2418L172.444 24.7614L172.754 24.7539C173.185 24.3073 173.219 24.2948 173.78 24.0088Z" fill="#2D2E4E"/>
<path d="M203.581 40.4297L203.902 40.4247C204.176 40.6347 204.332 41.2073 204.358 41.5616C204.462 42.9746 203.124 42.7484 202.465 42.7413C202.185 42.7337 202.226 42.7245 201.949 42.6465C201.675 42.1322 201.787 41.1083 201.807 40.4731L203.581 40.4297Z" fill="#546AD5"/>
<path d="M37.7245 108.463L40.0802 108.449L40.0797 110.72L37.7218 110.724L37.7245 108.463ZM69.5132 181.254L71.6438 181.264C71.6794 181.972 71.6429 182.699 71.623 183.409L69.5251 183.43L69.5132 181.254Z" fill="#2D2E4E"/>
<path d="M242.231 53.2977C242.758 53.2794 243.27 53.1993 243.724 53.439C243.998 53.8679 243.901 54.4501 243.882 54.9862C243.37 55.0114 242.798 55.1081 242.374 54.8669C242.115 54.4707 242.215 53.8045 242.231 53.2977ZM39.2207 153.454C39.715 153.443 40.3481 153.359 40.7406 153.599C41.0061 153.991 40.9206 154.6 40.911 155.107C40.3871 155.123 39.8118 155.208 39.3778 154.96C39.1009 154.541 39.1994 153.982 39.2207 153.454Z" fill="#EBECF6"/>
<path d="M92.8626 163.963C93.3663 163.942 93.9244 163.855 94.3449 164.088C94.6029 164.468 94.5135 165.018 94.4975 165.506C94.0094 165.523 93.4608 165.6 93.0437 165.389C92.765 164.884 92.8644 164.596 92.8626 163.963ZM249.363 104.331C249.858 104.319 250.221 104.257 250.663 104.464C250.927 104.977 250.815 105.325 250.796 105.964C250.32 105.971 249.913 106.041 249.515 105.809C249.244 105.39 249.341 104.855 249.363 104.331Z" fill="#CCCFEC"/>
<path d="M84.6815 153.022L85.0605 153.184C85.2624 153.606 85.176 154.164 85.1519 154.654L84.8318 154.583C84.6045 154.14 84.6758 153.54 84.6815 153.022ZM234.43 114.117C235.133 113.979 235.63 113.786 236.176 114.299C235.411 114.461 235.066 114.615 234.43 114.117ZM240.542 113.96C241.107 113.961 241.456 113.856 241.824 114.127L241.708 114.398C241.265 114.393 240.653 114.442 240.366 114.192L240.542 113.96ZM243.117 114.113C243.727 113.989 244.367 113.772 244.824 114.262C243.996 114.461 243.831 114.514 243.117 114.113ZM237.274 114.121C238.071 113.974 238.497 113.865 239.192 114.259C238.468 114.378 237.909 114.486 237.274 114.121ZM246.011 114.125C246.675 113.991 247.081 113.815 247.624 114.258C247.054 114.387 246.528 114.41 246.011 114.125Z" fill="#A7AAD7"/>
</g>
</g>
<defs>
<clipPath id="clip0_514_3373">
<rect width="288" height="288" fill="white"/>
</clipPath>
<clipPath id="clip1_514_3373">
<rect width="288" height="288" fill="white"/>
</clipPath>
</defs>
</svg>
