<svg width="227" height="319" viewBox="0 0 227 319" fill="none" xmlns="http://www.w3.org/2000/svg">
<mask id="mask0_657_1315" style="mask-type:luminance" maskUnits="userSpaceOnUse" x="0" y="0" width="227" height="319">
<path d="M226.562 0H0V318.202H226.562V0Z" fill="white"/>
</mask>
<g mask="url(#mask0_657_1315)">
<path d="M183.924 266.65C175.983 266.65 169.12 264.938 163.334 261.516C157.55 258.091 152.56 253.64 148.363 248.161C144.165 242.684 140.535 236.669 137.474 230.117C134.411 223.563 131.518 217.253 128.795 211.187C124.713 201.407 120.97 192.849 117.567 185.512C114.164 178.176 110.42 171.964 106.336 166.877C102.025 181.745 98.566 196.026 95.9581 209.722C93.3492 223.416 91.7041 238.675 91.0228 255.5C86.9409 258.826 82.3477 261.369 77.2433 263.13C72.1389 264.889 66.9778 265.769 61.761 265.769C53.8199 265.769 46.786 263.372 40.6592 258.579C34.5343 253.786 31.4728 245.717 31.4728 234.369C31.4728 226.545 32.8335 217.742 35.5548 207.962C38.2781 198.18 41.6249 188.104 45.5945 177.736C49.566 167.366 53.5932 157.291 57.6751 147.51C61.759 137.728 65.1626 128.875 67.8839 120.953C70.6072 113.03 71.9698 106.72 71.9698 102.024C71.9698 97.1338 70.0412 94.6884 66.185 94.6884C61.8724 94.6884 56.6537 97.476 50.5298 103.051C44.4049 108.626 38.1666 116.402 31.8149 126.379L29.7739 125.793C29.7739 114.055 32.722 103.588 38.6182 94.3934C44.5163 85.1987 52.5141 77.4226 62.6104 71.0652C72.7058 64.7078 84.3896 59.8668 97.6609 56.5406C110.931 53.2152 124.826 51.5521 139.345 51.5521C158.627 51.5521 174.281 54.1441 186.304 59.3282C198.329 64.5122 207.233 71.1638 213.017 79.2821C218.803 87.4013 221.696 96.0574 221.696 105.252C221.696 114.644 218.917 123.84 213.359 132.84C207.801 141.838 199.974 149.32 189.878 155.286C179.782 161.252 167.816 164.725 153.978 165.704C158.742 168.833 162.825 172.794 166.228 177.587C169.631 182.38 173.147 187.809 176.775 193.875C179.952 199.353 183.696 204.587 188.006 209.576C192.316 214.564 198.215 217.057 205.703 217.057C209.559 217.057 212.734 216.227 215.227 214.565C217.723 212.901 219.879 210.112 221.696 206.198L223.737 207.08C224.869 210.015 225.606 212.853 225.947 215.592C226.287 218.33 226.458 220.872 226.458 223.219C226.458 235.545 222.488 245.866 214.547 254.181C206.608 262.494 196.401 266.65 183.924 266.65ZM123.352 139.88C131.518 139.88 138.607 138.266 144.619 135.037C150.631 131.809 155.281 127.798 158.572 123.005C161.862 118.212 163.507 113.371 163.507 108.481C163.507 102.415 160.84 97.0841 155.508 92.4875C150.178 87.8893 141.5 85.5898 129.475 85.5898C127.661 85.5898 125.789 85.6395 123.859 85.739C121.932 85.8368 120.062 85.9834 118.248 86.1798C118.472 87.5479 118.586 88.868 118.586 90.1408C118.586 91.4119 118.586 92.0467 118.586 92.0467C118.586 101.048 118.188 109.753 117.394 118.166C116.602 126.577 115.526 133.618 114.166 139.293C115.751 139.488 117.281 139.635 118.755 139.734C120.231 139.832 121.763 139.88 123.352 139.88Z" fill="#4E61F6"/>
</g>
</svg>
