<svg width="329" height="294" viewBox="0 0 329 294" fill="none" xmlns="http://www.w3.org/2000/svg">
<path d="M160.656 58.4316C211.902 58.4318 253.405 98.1065 253.405 147C253.405 195.893 211.902 235.568 160.656 235.568C109.41 235.568 67.9062 195.894 67.9062 147C67.9062 98.1064 109.41 58.4316 160.656 58.4316Z" stroke="black" stroke-opacity="0.16"/>
<path d="M158.546 39.4316C223 39.4316 275.186 87.9242 275.186 147.666C275.186 207.408 223 255.9 158.546 255.9C94.0919 255.9 41.9062 207.408 41.9062 147.666C41.9062 87.9242 94.0919 39.4316 158.546 39.4316Z" stroke="black" stroke-opacity="0.16"/>
<path d="M156.371 16.4316C236.769 16.4319 301.835 73.9029 301.835 144.669C301.835 215.435 236.769 272.906 156.371 272.906C75.9726 272.906 10.9064 215.435 10.9062 144.669C10.9062 73.9027 75.9725 16.4316 156.371 16.4316Z" stroke="black" stroke-opacity="0.16"/>
<rect x="7.68547" y="33.3129" width="98.1108" height="37.8772" rx="7.09589" fill="white"/>
<rect x="7.68547" y="33.3129" width="98.1108" height="37.8772" rx="7.09589" stroke="#F8FAFC" stroke-width="0.617034"/>
<g filter="url(#filter0_dd_742_2889)">
<rect x="7.37695" y="33.0044" width="99.2485" height="38.3198" rx="7.4044" fill="white" fill-opacity="0.01" shape-rendering="crispEdges"/>
</g>
<path d="M37.8667 62.7515L33.8667 58.7515H23.8667C23.3167 58.7515 22.8459 58.5556 22.4542 58.164C22.0625 57.7723 21.8667 57.3015 21.8667 56.7515V55.7515H32.8667C33.4167 55.7515 33.8875 55.5556 34.2792 55.164C34.6709 54.7723 34.8667 54.3015 34.8667 53.7515V46.7515H35.8667C36.4167 46.7515 36.8875 46.9473 37.2792 47.339C37.6709 47.7306 37.8667 48.2015 37.8667 48.7515V62.7515ZM19.8667 52.9265L21.0417 51.7515H30.8667V44.7515H19.8667V52.9265ZM17.8667 57.7515V44.7515C17.8667 44.2015 18.0625 43.7306 18.4542 43.339C18.8459 42.9473 19.3167 42.7515 19.8667 42.7515H30.8667C31.4167 42.7515 31.8875 42.9473 32.2792 43.339C32.6709 43.7306 32.8667 44.2015 32.8667 44.7515V51.7515C32.8667 52.3015 32.6709 52.7723 32.2792 53.164C31.8875 53.5556 31.4167 53.7515 30.8667 53.7515H21.8667L17.8667 57.7515ZM19.8667 51.7515V44.7515V51.7515Z" fill="black"/>
<path d="M52.8521 51.6132H52.2C52.1614 51.4257 52.0939 51.2609 51.9975 51.1189C51.9028 50.9769 51.7871 50.8577 51.6504 50.7613C51.5154 50.6631 51.3656 50.5895 51.2008 50.5404C51.036 50.4913 50.8642 50.4668 50.6854 50.4668C50.3594 50.4668 50.064 50.5492 49.7993 50.714C49.5364 50.8787 49.3269 51.1215 49.1709 51.4423C49.0166 51.7631 48.9395 52.1566 48.9395 52.6229C48.9395 53.0892 49.0166 53.4827 49.1709 53.8035C49.3269 54.1243 49.5364 54.3671 49.7993 54.5319C50.064 54.6966 50.3594 54.779 50.6854 54.779C50.8642 54.779 51.036 54.7545 51.2008 54.7054C51.3656 54.6563 51.5154 54.5836 51.6504 54.4872C51.7871 54.389 51.9028 54.2689 51.9975 54.1269C52.0939 53.9832 52.1614 53.8184 52.2 53.6326H52.8521C52.803 53.9078 52.7136 54.1541 52.5839 54.3715C52.4541 54.5888 52.2929 54.7738 52.1 54.9263C51.9072 55.077 51.6907 55.1919 51.4506 55.2707C51.2122 55.3496 50.9571 55.3891 50.6854 55.3891C50.2262 55.3891 49.8177 55.2769 49.4601 55.0525C49.1025 54.8281 48.8212 54.5091 48.6161 54.0954C48.411 53.6817 48.3084 53.1909 48.3084 52.6229C48.3084 52.055 48.411 51.5641 48.6161 51.1505C48.8212 50.7368 49.1025 50.4177 49.4601 50.1934C49.8177 49.969 50.2262 49.8568 50.6854 49.8568C50.9571 49.8568 51.2122 49.8962 51.4506 49.9751C51.6907 50.054 51.9072 50.1697 52.1 50.3222C52.2929 50.4729 52.4541 50.657 52.5839 50.8744C52.7136 51.09 52.803 51.3363 52.8521 51.6132ZM54.4422 52.8859V55.3154H53.8216V49.9304H54.4422V51.9077H54.4948C54.5894 51.6991 54.7314 51.5335 54.9207 51.4108C55.1118 51.2863 55.366 51.2241 55.6833 51.2241C55.9585 51.2241 56.1995 51.2793 56.4064 51.3897C56.6132 51.4984 56.7736 51.6658 56.8875 51.8919C57.0032 52.1163 57.0611 52.4021 57.0611 52.7491V55.3154H56.4405V52.7912C56.4405 52.4704 56.3573 52.2224 56.1907 52.0471C56.026 51.87 55.7972 51.7815 55.5045 51.7815C55.3011 51.7815 55.1188 51.8245 54.9576 51.9104C54.798 51.9962 54.6718 52.1216 54.5789 52.2864C54.4878 52.4511 54.4422 52.651 54.4422 52.8859ZM59.3848 55.4101C59.1289 55.4101 58.8966 55.3619 58.688 55.2655C58.4794 55.1673 58.3138 55.0262 58.1911 54.8421C58.0684 54.6563 58.007 54.432 58.007 54.169C58.007 53.9376 58.0526 53.7501 58.1437 53.6063C58.2349 53.4608 58.3567 53.3469 58.5092 53.2645C58.6617 53.1821 58.83 53.1208 59.0141 53.0804C59.1999 53.0384 59.3866 53.0051 59.5741 52.9805C59.8195 52.949 60.0185 52.9253 60.171 52.9095C60.3253 52.892 60.4375 52.8631 60.5076 52.8228C60.5794 52.7824 60.6154 52.7123 60.6154 52.6124V52.5914C60.6154 52.3319 60.5444 52.1303 60.4024 51.9866C60.2622 51.8429 60.0492 51.771 59.7634 51.771C59.4672 51.771 59.2349 51.8359 59.0667 51.9656C58.8984 52.0953 58.78 52.2338 58.7117 52.381L58.1227 52.1707C58.2279 51.9253 58.3681 51.7342 58.5434 51.5975C58.7204 51.459 58.9133 51.3626 59.1219 51.3082C59.3322 51.2521 59.5391 51.2241 59.7424 51.2241C59.8721 51.2241 60.0211 51.2399 60.1894 51.2714C60.3594 51.3012 60.5233 51.3634 60.6811 51.4581C60.8406 51.5528 60.973 51.6956 61.0782 51.8867C61.1833 52.0778 61.2359 52.3337 61.2359 52.6545V55.3154H60.6154V54.7685H60.5838C60.5418 54.8562 60.4716 54.9499 60.3735 55.0499C60.2753 55.1498 60.1447 55.2348 59.9817 55.3049C59.8187 55.375 59.6197 55.4101 59.3848 55.4101ZM59.4795 54.8527C59.7249 54.8527 59.9317 54.8045 60.1 54.708C60.27 54.6116 60.398 54.4872 60.4839 54.3347C60.5716 54.1822 60.6154 54.0218 60.6154 53.8535V53.2855C60.5891 53.3171 60.5312 53.346 60.4418 53.3723C60.3542 53.3968 60.2525 53.4188 60.1368 53.438C60.0229 53.4556 59.9116 53.4713 59.8029 53.4854C59.696 53.4976 59.6092 53.5082 59.5426 53.5169C59.3813 53.538 59.2306 53.5721 59.0903 53.6195C58.9518 53.665 58.8396 53.7343 58.7538 53.8272C58.6696 53.9183 58.6275 54.0428 58.6275 54.2006C58.6275 54.4162 58.7073 54.5792 58.8668 54.6896C59.0281 54.7983 59.2323 54.8527 59.4795 54.8527ZM64.125 51.2767V51.8025H62.032V51.2767H64.125ZM62.642 50.309H63.2625V54.1585C63.2625 54.3338 63.2879 54.4653 63.3388 54.5529C63.3914 54.6388 63.458 54.6966 63.5386 54.7264C63.621 54.7545 63.7078 54.7685 63.7989 54.7685C63.8673 54.7685 63.9234 54.765 63.9672 54.758C64.011 54.7492 64.0461 54.7422 64.0724 54.737L64.1986 55.2944C64.1565 55.3102 64.0978 55.326 64.0224 55.3417C63.9471 55.3593 63.8515 55.368 63.7358 55.368C63.5605 55.368 63.3887 55.3303 63.2205 55.255C63.0539 55.1796 62.9154 55.0648 62.805 54.9105C62.6963 54.7562 62.642 54.5617 62.642 54.3268V50.309ZM66.9306 50.5089V49.9304H70.9693V50.5089H69.276V55.3154H68.6239V50.5089H66.9306ZM71.8916 55.3154V51.2767H72.5121V55.3154H71.8916ZM72.2071 50.6035C72.0862 50.6035 71.9819 50.5623 71.8942 50.48C71.8083 50.3976 71.7654 50.2985 71.7654 50.1828C71.7654 50.0671 71.8083 49.9681 71.8942 49.8857C71.9819 49.8033 72.0862 49.7621 72.2071 49.7621C72.3281 49.7621 72.4315 49.8033 72.5174 49.8857C72.605 49.9681 72.6489 50.0671 72.6489 50.1828C72.6489 50.2985 72.605 50.3976 72.5174 50.48C72.4315 50.5623 72.3281 50.6035 72.2071 50.6035ZM73.6487 55.3154V51.2767H74.2482V51.9077H74.3008C74.3849 51.6921 74.5208 51.5247 74.7083 51.4055C74.8959 51.2846 75.1212 51.2241 75.3841 51.2241C75.6505 51.2241 75.8723 51.2846 76.0493 51.4055C76.2281 51.5247 76.3675 51.6921 76.4674 51.9077H76.5095C76.6129 51.6991 76.768 51.5335 76.9749 51.4108C77.1817 51.2863 77.4298 51.2241 77.719 51.2241C78.0801 51.2241 78.3755 51.3371 78.6051 51.5633C78.8348 51.7876 78.9496 52.1374 78.9496 52.6124V55.3154H78.329V52.6124C78.329 52.3144 78.2475 52.1014 78.0845 51.9735C77.9215 51.8455 77.7295 51.7815 77.5087 51.7815C77.2247 51.7815 77.0047 51.8674 76.8487 52.0392C76.6927 52.2092 76.6147 52.4248 76.6147 52.686V55.3154H75.9836V52.5493C75.9836 52.3197 75.9091 52.1347 75.7601 51.9945C75.6111 51.8525 75.4192 51.7815 75.1843 51.7815C75.023 51.7815 74.8722 51.8245 74.732 51.9104C74.5935 51.9962 74.4813 52.1154 74.3954 52.268C74.3113 52.4187 74.2692 52.5931 74.2692 52.7912V55.3154H73.6487Z" fill="#1E293B"/>
<rect x="221.129" y="35.7821" width="92.9934" height="35.4077" rx="7.09589" fill="white"/>
<rect x="221.129" y="35.7821" width="92.9934" height="35.4077" rx="7.09589" stroke="#F8FAFC" stroke-width="0.617034"/>
<g filter="url(#filter1_dd_742_2889)">
<rect x="220.82" y="35.4736" width="93.9626" height="35.8517" rx="7.4044" fill="white" fill-opacity="0.01" shape-rendering="crispEdges"/>
</g>
<path d="M237.115 61.0608L233.565 57.5108L234.965 56.1108L237.09 58.2358L241.34 53.9858L242.74 55.4108L237.115 61.0608ZM237.115 53.0608L233.565 49.5108L234.965 48.1108L237.09 50.2358L241.34 45.9858L242.74 47.4108L237.115 53.0608ZM244.565 59.0608V57.0608H253.565V59.0608H244.565ZM244.565 51.0608V49.0608H253.565V51.0608H244.565Z" fill="black"/>
<path d="M263.923 51.7433V51.1648H267.961V51.7433H266.268V56.5498H265.616V51.7433H263.923ZM269.939 56.6339C269.574 56.6339 269.254 56.5472 268.979 56.3736C268.705 56.2001 268.492 55.9573 268.337 55.6453C268.185 55.3333 268.109 54.9687 268.109 54.5515C268.109 54.1308 268.185 53.7635 268.337 53.4497C268.492 53.136 268.705 52.8923 268.979 52.7188C269.254 52.5452 269.574 52.4585 269.939 52.4585C270.303 52.4585 270.622 52.5452 270.896 52.7188C271.171 52.8923 271.385 53.136 271.537 53.4497C271.692 53.7635 271.769 54.1308 271.769 54.5515C271.769 54.9687 271.692 55.3333 271.537 55.6453C271.385 55.9573 271.171 56.2001 270.896 56.3736C270.622 56.5472 270.303 56.6339 269.939 56.6339ZM269.939 56.0765C270.216 56.0765 270.443 56.0055 270.622 55.8635C270.801 55.7215 270.933 55.5349 271.019 55.3035C271.105 55.0721 271.148 54.8214 271.148 54.5515C271.148 54.2815 271.105 54.03 271.019 53.7968C270.933 53.5637 270.801 53.3752 270.622 53.2315C270.443 53.0878 270.216 53.0159 269.939 53.0159C269.662 53.0159 269.434 53.0878 269.255 53.2315C269.076 53.3752 268.944 53.5637 268.858 53.7968C268.772 54.03 268.729 54.2815 268.729 54.5515C268.729 54.8214 268.772 55.0721 268.858 55.3035C268.944 55.5349 269.076 55.7215 269.255 55.8635C269.434 56.0055 269.662 56.0765 269.939 56.0765ZM275.03 53.952V54.5304H272.674V53.952H275.03ZM277.868 56.5498H276.206V51.1648H277.941C278.464 51.1648 278.911 51.2726 279.282 51.4882C279.654 51.7021 279.939 52.0097 280.137 52.4111C280.335 52.8108 280.434 53.2893 280.434 53.8468C280.434 54.4077 280.334 54.8907 280.134 55.2956C279.934 55.6988 279.643 56.009 279.261 56.2264C278.879 56.442 278.415 56.5498 277.868 56.5498ZM276.858 55.9713H277.826C278.271 55.9713 278.64 55.8854 278.932 55.7137C279.225 55.5419 279.443 55.2973 279.587 54.98C279.731 54.6628 279.803 54.285 279.803 53.8468C279.803 53.412 279.732 53.0378 279.59 52.724C279.448 52.4085 279.236 52.1666 278.954 51.9983C278.671 51.8283 278.32 51.7433 277.899 51.7433H276.858V55.9713ZM283.084 56.6339C282.72 56.6339 282.4 56.5472 282.125 56.3736C281.851 56.2001 281.637 55.9573 281.483 55.6453C281.331 55.3333 281.254 54.9687 281.254 54.5515C281.254 54.1308 281.331 53.7635 281.483 53.4497C281.637 53.136 281.851 52.8923 282.125 52.7188C282.4 52.5452 282.72 52.4585 283.084 52.4585C283.449 52.4585 283.768 52.5452 284.041 52.7188C284.317 52.8923 284.531 53.136 284.683 53.4497C284.837 53.7635 284.914 54.1308 284.914 54.5515C284.914 54.9687 284.837 55.3333 284.683 55.6453C284.531 55.9573 284.317 56.2001 284.041 56.3736C283.768 56.5472 283.449 56.6339 283.084 56.6339ZM283.084 56.0765C283.361 56.0765 283.589 56.0055 283.768 55.8635C283.947 55.7215 284.079 55.5349 284.165 55.3035C284.251 55.0721 284.294 54.8214 284.294 54.5515C284.294 54.2815 284.251 54.03 284.165 53.7968C284.079 53.5637 283.947 53.3752 283.768 53.2315C283.589 53.0878 283.361 53.0159 283.084 53.0159C282.807 53.0159 282.579 53.0878 282.401 53.2315C282.222 53.3752 282.09 53.5637 282.004 53.7968C281.918 54.03 281.875 54.2815 281.875 54.5515C281.875 54.8214 281.918 55.0721 282.004 55.3035C282.09 55.5349 282.222 55.7215 282.401 55.8635C282.579 56.0055 282.807 56.0765 283.084 56.0765ZM288.028 56.5498V51.1648H288.68V55.9713H291.184V56.5498H288.028ZM292.109 56.5498V52.511H292.73V56.5498H292.109ZM292.425 51.8379C292.304 51.8379 292.199 51.7967 292.112 51.7143C292.026 51.6319 291.983 51.5329 291.983 51.4172C291.983 51.3015 292.026 51.2025 292.112 51.1201C292.199 51.0377 292.304 50.9965 292.425 50.9965C292.546 50.9965 292.649 51.0377 292.735 51.1201C292.823 51.2025 292.866 51.3015 292.866 51.4172C292.866 51.5329 292.823 51.6319 292.735 51.7143C292.649 51.7967 292.546 51.8379 292.425 51.8379ZM296.727 53.4156L296.17 53.5733C296.135 53.4804 296.083 53.3901 296.014 53.3025C295.948 53.2131 295.857 53.1395 295.741 53.0816C295.625 53.0238 295.477 52.9948 295.297 52.9948C295.049 52.9948 294.843 53.0518 294.679 53.1658C294.516 53.2779 294.434 53.4208 294.434 53.5944C294.434 53.7486 294.49 53.8704 294.602 53.9598C294.715 54.0492 294.89 54.1237 295.128 54.1833L295.728 54.3306C296.089 54.4182 296.358 54.5523 296.535 54.7329C296.712 54.9117 296.801 55.1422 296.801 55.4244C296.801 55.6558 296.734 55.8627 296.601 56.045C296.469 56.2273 296.285 56.371 296.049 56.4762C295.812 56.5814 295.537 56.6339 295.223 56.6339C294.811 56.6339 294.47 56.5445 294.2 56.3657C293.93 56.1869 293.759 55.9258 293.687 55.5822L294.276 55.4349C294.332 55.6523 294.439 55.8153 294.595 55.924C294.752 56.0327 294.958 56.087 295.212 56.087C295.502 56.087 295.731 56.0257 295.901 55.903C296.073 55.7785 296.159 55.6295 296.159 55.456C296.159 55.3157 296.11 55.1983 296.012 55.1036C295.914 55.0072 295.763 54.9354 295.56 54.888L294.886 54.7303C294.517 54.6426 294.245 54.5068 294.071 54.3227C293.9 54.1369 293.814 53.9046 293.814 53.6259C293.814 53.398 293.878 53.1964 294.006 53.0211C294.135 52.8458 294.311 52.7082 294.534 52.6083C294.758 52.5084 295.013 52.4585 295.297 52.4585C295.696 52.4585 296.01 52.5461 296.238 52.7214C296.468 52.8967 296.631 53.1281 296.727 53.4156ZM299.491 52.511V53.0369H297.398V52.511H299.491ZM298.008 51.5434H298.629V55.3929C298.629 55.5682 298.654 55.6996 298.705 55.7873C298.758 55.8732 298.824 55.931 298.905 55.9608C298.987 55.9889 299.074 56.0029 299.165 56.0029C299.233 56.0029 299.29 55.9994 299.333 55.9924C299.377 55.9836 299.412 55.9766 299.439 55.9713L299.565 56.5288C299.523 56.5445 299.464 56.5603 299.389 56.5761C299.313 56.5936 299.218 56.6024 299.102 56.6024C298.927 56.6024 298.755 56.5647 298.587 56.4893C298.42 56.414 298.282 56.2991 298.171 56.1449C298.063 55.9906 298.008 55.796 298.008 55.5611V51.5434Z" fill="#1E293B"/>
<rect x="3.39348" y="204.303" width="92.383" height="33.383" rx="7.09589" fill="white"/>
<rect x="3.39348" y="204.303" width="92.383" height="33.383" rx="7.09589" stroke="#F8FAFC" stroke-width="0.617034"/>
<g filter="url(#filter2_dd_742_2889)">
<rect x="3.08496" y="203.995" width="93.0329" height="34.3198" rx="7.4044" fill="white" fill-opacity="0.01" shape-rendering="crispEdges"/>
</g>
<path d="M21.8174 230.995C21.2674 230.995 20.7965 230.799 20.4049 230.407C20.0132 230.015 19.8174 229.545 19.8174 228.995V214.995C19.8174 214.445 20.0132 213.974 20.4049 213.582C20.7965 213.19 21.2674 212.995 21.8174 212.995H22.8174V210.995H24.8174V212.995H32.8174V210.995H34.8174V212.995H35.8174C36.3674 212.995 36.8382 213.19 37.2299 213.582C37.6215 213.974 37.8174 214.445 37.8174 214.995V228.995C37.8174 229.545 37.6215 230.015 37.2299 230.407C36.8382 230.799 36.3674 230.995 35.8174 230.995H21.8174ZM21.8174 228.995H35.8174V218.995H21.8174V228.995ZM21.8174 216.995H35.8174V214.995H21.8174V216.995ZM21.8174 216.995V214.995V216.995ZM28.8174 222.995C28.534 222.995 28.2965 222.899 28.1049 222.707C27.9132 222.515 27.8174 222.278 27.8174 221.995C27.8174 221.711 27.9132 221.474 28.1049 221.282C28.2965 221.09 28.534 220.995 28.8174 220.995C29.1007 220.995 29.3382 221.09 29.5299 221.282C29.7215 221.474 29.8174 221.711 29.8174 221.995C29.8174 222.278 29.7215 222.515 29.5299 222.707C29.3382 222.899 29.1007 222.995 28.8174 222.995ZM24.8174 222.995C24.534 222.995 24.2965 222.899 24.1049 222.707C23.9132 222.515 23.8174 222.278 23.8174 221.995C23.8174 221.711 23.9132 221.474 24.1049 221.282C24.2965 221.09 24.534 220.995 24.8174 220.995C25.1007 220.995 25.3382 221.09 25.5299 221.282C25.7215 221.474 25.8174 221.711 25.8174 221.995C25.8174 222.278 25.7215 222.515 25.5299 222.707C25.3382 222.899 25.1007 222.995 24.8174 222.995ZM32.8174 222.995C32.534 222.995 32.2965 222.899 32.1049 222.707C31.9132 222.515 31.8174 222.278 31.8174 221.995C31.8174 221.711 31.9132 221.474 32.1049 221.282C32.2965 221.09 32.534 220.995 32.8174 220.995C33.1007 220.995 33.3382 221.09 33.5299 221.282C33.7215 221.474 33.8174 221.711 33.8174 221.995C33.8174 222.278 33.7215 222.515 33.5299 222.707C33.3382 222.899 33.1007 222.995 32.8174 222.995ZM28.8174 226.995C28.534 226.995 28.2965 226.899 28.1049 226.707C27.9132 226.515 27.8174 226.278 27.8174 225.995C27.8174 225.711 27.9132 225.474 28.1049 225.282C28.2965 225.09 28.534 224.995 28.8174 224.995C29.1007 224.995 29.3382 225.09 29.5299 225.282C29.7215 225.474 29.8174 225.711 29.8174 225.995C29.8174 226.278 29.7215 226.515 29.5299 226.707C29.3382 226.899 29.1007 226.995 28.8174 226.995ZM24.8174 226.995C24.534 226.995 24.2965 226.899 24.1049 226.707C23.9132 226.515 23.8174 226.278 23.8174 225.995C23.8174 225.711 23.9132 225.474 24.1049 225.282C24.2965 225.09 24.534 224.995 24.8174 224.995C25.1007 224.995 25.3382 225.09 25.5299 225.282C25.7215 225.474 25.8174 225.711 25.8174 225.995C25.8174 226.278 25.7215 226.515 25.5299 226.707C25.3382 226.899 25.1007 226.995 24.8174 226.995ZM32.8174 226.995C32.534 226.995 32.2965 226.899 32.1049 226.707C31.9132 226.515 31.8174 226.278 31.8174 225.995C31.8174 225.711 31.9132 225.474 32.1049 225.282C32.2965 225.09 32.534 224.995 32.8174 224.995C33.1007 224.995 33.3382 225.09 33.5299 225.282C33.7215 225.474 33.8174 225.711 33.8174 225.995C33.8174 226.278 33.7215 226.515 33.5299 226.707C33.3382 226.899 33.1007 226.995 32.8174 226.995Z" fill="black"/>
<path d="M52.8027 220.356H52.1506C52.1121 220.169 52.0446 220.004 51.9482 219.862C51.8535 219.72 51.7378 219.601 51.6011 219.504C51.4661 219.406 51.3162 219.333 51.1515 219.284C50.9867 219.235 50.8149 219.21 50.6361 219.21C50.3101 219.21 50.0147 219.292 49.75 219.457C49.4871 219.622 49.2776 219.865 49.1216 220.185C48.9673 220.506 48.8902 220.9 48.8902 221.366C48.8902 221.832 48.9673 222.226 49.1216 222.547C49.2776 222.867 49.4871 223.11 49.75 223.275C50.0147 223.44 50.3101 223.522 50.6361 223.522C50.8149 223.522 50.9867 223.498 51.1515 223.449C51.3162 223.399 51.4661 223.327 51.6011 223.23C51.7378 223.132 51.8535 223.012 51.9482 222.87C52.0446 222.726 52.1121 222.562 52.1506 222.376H52.8027C52.7537 222.651 52.6643 222.897 52.5345 223.115C52.4048 223.332 52.2435 223.517 52.0507 223.669C51.8579 223.82 51.6414 223.935 51.4013 224.014C51.1629 224.093 50.9078 224.132 50.6361 224.132C50.1768 224.132 49.7684 224.02 49.4108 223.796C49.0532 223.571 48.7719 223.252 48.5668 222.839C48.3617 222.425 48.2591 221.934 48.2591 221.366C48.2591 220.798 48.3617 220.307 48.5668 219.894C48.7719 219.48 49.0532 219.161 49.4108 218.937C49.7684 218.712 50.1768 218.6 50.6361 218.6C50.9078 218.6 51.1629 218.639 51.4013 218.718C51.6414 218.797 51.8579 218.913 52.0507 219.065C52.2435 219.216 52.4048 219.4 52.5345 219.618C52.6643 219.833 52.7537 220.079 52.8027 220.356ZM54.9608 224.153C54.7049 224.153 54.4726 224.105 54.264 224.009C54.0554 223.91 53.8898 223.769 53.7671 223.585C53.6444 223.399 53.583 223.175 53.583 222.912C53.583 222.681 53.6286 222.493 53.7197 222.349C53.8109 222.204 53.9327 222.09 54.0852 222.008C54.2377 221.925 54.406 221.864 54.5901 221.824C54.7759 221.782 54.9626 221.748 55.1501 221.724C55.3955 221.692 55.5945 221.668 55.747 221.653C55.9013 221.635 56.0135 221.606 56.0836 221.566C56.1554 221.526 56.1914 221.455 56.1914 221.356V221.335C56.1914 221.075 56.1204 220.874 55.9784 220.73C55.8382 220.586 55.6252 220.514 55.3395 220.514C55.0432 220.514 54.8109 220.579 54.6427 220.709C54.4744 220.838 54.3561 220.977 54.2877 221.124L53.6987 220.914C53.8039 220.668 53.9441 220.477 54.1194 220.341C54.2965 220.202 54.4893 220.106 54.6979 220.051C54.9082 219.995 55.1151 219.967 55.3184 219.967C55.4481 219.967 55.5971 219.983 55.7654 220.015C55.9355 220.044 56.0994 220.107 56.2571 220.201C56.4166 220.296 56.549 220.439 56.6542 220.63C56.7593 220.821 56.8119 221.077 56.8119 221.398V224.059H56.1914V223.512H56.1598C56.1178 223.599 56.0476 223.693 55.9495 223.793C55.8513 223.893 55.7207 223.978 55.5577 224.048C55.3947 224.118 55.1957 224.153 54.9608 224.153ZM55.0555 223.596C55.3009 223.596 55.5077 223.548 55.676 223.451C55.8461 223.355 55.974 223.23 56.0599 223.078C56.1476 222.925 56.1914 222.765 56.1914 222.597V222.029C56.1651 222.06 56.1072 222.089 56.0178 222.115C55.9302 222.14 55.8285 222.162 55.7128 222.181C55.5989 222.199 55.4876 222.215 55.3789 222.229C55.272 222.241 55.1852 222.251 55.1186 222.26C54.9573 222.281 54.8066 222.315 54.6663 222.363C54.5278 222.408 54.4157 222.477 54.3298 222.57C54.2456 222.662 54.2035 222.786 54.2035 222.944C54.2035 223.159 54.2833 223.322 54.4428 223.433C54.6041 223.541 54.8083 223.596 55.0555 223.596ZM58.5651 218.674V224.059H57.9445V218.674H58.5651ZM61.395 224.143C61.0058 224.143 60.6701 224.057 60.3879 223.885C60.1074 223.712 59.891 223.47 59.7384 223.159C59.5877 222.847 59.5123 222.484 59.5123 222.071C59.5123 221.657 59.5877 221.292 59.7384 220.977C59.891 220.66 60.1031 220.412 60.3748 220.235C60.6482 220.057 60.9673 219.967 61.3319 219.967C61.5422 219.967 61.7499 220.002 61.955 220.072C62.1601 220.143 62.3468 220.256 62.5151 220.414C62.6834 220.57 62.8175 220.777 62.9174 221.035C63.0173 221.292 63.0673 221.61 63.0673 221.987V222.25H59.9541V221.713H62.4362C62.4362 221.485 62.3906 221.282 62.2995 221.103C62.2101 220.924 62.0821 220.783 61.9156 220.68C61.7508 220.576 61.5562 220.525 61.3319 220.525C61.0847 220.525 60.8708 220.586 60.6903 220.709C60.5115 220.83 60.3739 220.987 60.2775 221.182C60.1811 221.377 60.1329 221.585 60.1329 221.808V222.165C60.1329 222.47 60.1854 222.729 60.2906 222.941C60.3975 223.151 60.5457 223.312 60.735 223.422C60.9243 223.531 61.1443 223.585 61.395 223.585C61.558 223.585 61.7052 223.563 61.8367 223.517C61.9699 223.47 62.0848 223.399 62.1812 223.307C62.2776 223.212 62.3521 223.094 62.4047 222.954L63.0042 223.123C62.9411 223.326 62.835 223.505 62.686 223.659C62.537 223.811 62.353 223.931 62.1338 224.017C61.9147 224.101 61.6684 224.143 61.395 224.143ZM64.6318 221.629V224.059H64.0112V220.02H64.6107V220.651H64.6633C64.758 220.446 64.9017 220.281 65.0945 220.157C65.2874 220.03 65.5363 219.967 65.8413 219.967C66.1148 219.967 66.354 220.023 66.5591 220.136C66.7642 220.246 66.9237 220.414 67.0377 220.64C67.1516 220.865 67.2086 221.149 67.2086 221.492V224.059H66.588V221.534C66.588 221.217 66.5057 220.97 66.3409 220.793C66.1761 220.614 65.95 220.525 65.6625 220.525C65.4644 220.525 65.2874 220.568 65.1314 220.654C64.9771 220.739 64.8553 220.865 64.7659 221.03C64.6765 221.194 64.6318 221.394 64.6318 221.629ZM69.8676 224.143C69.531 224.143 69.2339 224.058 68.9762 223.888C68.7185 223.716 68.5169 223.474 68.3714 223.162C68.2259 222.848 68.1532 222.477 68.1532 222.05C68.1532 221.626 68.2259 221.257 68.3714 220.945C68.5169 220.633 68.7194 220.392 68.9788 220.222C69.2383 220.052 69.538 219.967 69.8781 219.967C70.141 219.967 70.3488 220.011 70.5013 220.099C70.6555 220.185 70.773 220.283 70.8536 220.393C70.936 220.502 71 220.591 71.0455 220.661H71.0981V218.674H71.7187V224.059H71.1192V223.438H71.0455C71 223.512 70.9351 223.605 70.851 223.717C70.7668 223.827 70.6468 223.926 70.4907 224.014C70.3347 224.1 70.127 224.143 69.8676 224.143ZM69.9517 223.585C70.2006 223.585 70.411 223.52 70.5828 223.391C70.7546 223.259 70.8851 223.078 70.9745 222.846C71.0639 222.613 71.1086 222.344 71.1086 222.039C71.1086 221.738 71.0648 221.474 70.9772 221.248C70.8895 221.02 70.7598 220.843 70.588 220.717C70.4162 220.589 70.2041 220.525 69.9517 220.525C69.6888 220.525 69.4697 220.592 69.2944 220.727C69.1208 220.86 68.9902 221.042 68.9026 221.271C68.8167 221.499 68.7737 221.755 68.7737 222.039C68.7737 222.327 68.8176 222.588 68.9052 222.823C68.9946 223.056 69.1261 223.242 69.2996 223.38C69.4749 223.517 69.6923 223.585 69.9517 223.585ZM74.1298 224.153C73.8739 224.153 73.6416 224.105 73.433 224.009C73.2244 223.91 73.0588 223.769 72.9361 223.585C72.8134 223.399 72.752 223.175 72.752 222.912C72.752 222.681 72.7976 222.493 72.8888 222.349C72.9799 222.204 73.1017 222.09 73.2542 222.008C73.4067 221.925 73.575 221.864 73.7591 221.824C73.9449 221.782 74.1316 221.748 74.3192 221.724C74.5646 221.692 74.7635 221.668 74.916 221.653C75.0703 221.635 75.1825 221.606 75.2526 221.566C75.3245 221.526 75.3604 221.455 75.3604 221.356V221.335C75.3604 221.075 75.2894 220.874 75.1474 220.73C75.0072 220.586 74.7942 220.514 74.5085 220.514C74.2122 220.514 73.98 220.579 73.8117 220.709C73.6434 220.838 73.5251 220.977 73.4567 221.124L72.8677 220.914C72.9729 220.668 73.1131 220.477 73.2884 220.341C73.4655 220.202 73.6583 220.106 73.8669 220.051C74.0772 219.995 74.2841 219.967 74.4874 219.967C74.6172 219.967 74.7662 219.983 74.9344 220.015C75.1045 220.044 75.2684 220.107 75.4261 220.201C75.5856 220.296 75.718 220.439 75.8232 220.63C75.9283 220.821 75.9809 221.077 75.9809 221.398V224.059H75.3604V223.512H75.3288C75.2868 223.599 75.2167 223.693 75.1185 223.793C75.0203 223.893 74.8897 223.978 74.7267 224.048C74.5637 224.118 74.3647 224.153 74.1298 224.153ZM74.2245 223.596C74.4699 223.596 74.6768 223.548 74.845 223.451C75.0151 223.355 75.143 223.23 75.2289 223.078C75.3166 222.925 75.3604 222.765 75.3604 222.597V222.029C75.3341 222.06 75.2763 222.089 75.1869 222.115C75.0992 222.14 74.9975 222.162 74.8818 222.181C74.7679 222.199 74.6566 222.215 74.5479 222.229C74.441 222.241 74.3542 222.251 74.2876 222.26C74.1263 222.281 73.9756 222.315 73.8353 222.363C73.6969 222.408 73.5847 222.477 73.4988 222.57C73.4146 222.662 73.3726 222.786 73.3726 222.944C73.3726 223.159 73.4523 223.322 73.6118 223.433C73.7731 223.541 73.9773 223.596 74.2245 223.596ZM77.1136 224.059V220.02H77.7131V220.63H77.7551C77.8288 220.43 77.962 220.268 78.1548 220.143C78.3476 220.019 78.565 219.957 78.8069 219.957C78.8525 219.957 78.9094 219.958 78.9778 219.959C79.0462 219.961 79.0979 219.964 79.1329 219.967V220.598C79.1119 220.593 79.0637 220.585 78.9883 220.575C78.9147 220.562 78.8367 220.556 78.7543 220.556C78.558 220.556 78.3827 220.597 78.2284 220.68C78.0759 220.76 77.955 220.873 77.8656 221.016C77.7779 221.158 77.7341 221.321 77.7341 221.503V224.059H77.1136Z" fill="#1E293B"/>
<rect x="210.099" y="217.474" width="115.405" height="41.8997" rx="7.09589" fill="white"/>
<rect x="210.099" y="217.474" width="115.405" height="41.8997" rx="7.09589" stroke="#F8FAFC" stroke-width="0.617034"/>
<g filter="url(#filter3_dd_742_2889)">
<rect x="209.791" y="217.165" width="115.667" height="42.9369" rx="7.4044" fill="white" fill-opacity="0.01" shape-rendering="crispEdges"/>
</g>
<path d="M227.88 248.655L225.98 245.455L222.38 244.655L222.73 240.955L220.28 238.155L222.73 235.355L222.38 231.655L225.98 230.855L227.88 227.655L231.28 229.105L234.68 227.655L236.58 230.855L240.18 231.655L239.83 235.355L242.28 238.155L239.83 240.955L240.18 244.655L236.58 245.455L234.68 248.655L231.28 247.205L227.88 248.655ZM228.73 246.105L231.28 245.005L233.88 246.105L235.28 243.705L238.03 243.055L237.78 240.255L239.63 238.155L237.78 236.005L238.03 233.205L235.28 232.605L233.83 230.205L231.28 231.305L228.68 230.205L227.28 232.605L224.53 233.205L224.78 236.005L222.93 238.155L224.78 240.255L224.53 243.105L227.28 243.705L228.73 246.105ZM230.23 241.705L235.88 236.055L234.48 234.605L230.23 238.855L228.08 236.755L226.68 238.155L230.23 241.705Z" fill="black"/>
<path d="M256.222 237.449C256.19 237.182 256.063 236.975 255.838 236.828C255.614 236.681 255.339 236.607 255.013 236.607C254.774 236.607 254.566 236.646 254.387 236.723C254.21 236.8 254.071 236.906 253.971 237.041C253.873 237.176 253.824 237.329 253.824 237.501C253.824 237.645 253.858 237.768 253.927 237.872C253.997 237.974 254.086 238.059 254.195 238.127C254.303 238.194 254.417 238.249 254.537 238.293C254.656 238.335 254.765 238.369 254.865 238.395L255.412 238.542C255.552 238.579 255.708 238.63 255.88 238.695C256.054 238.76 256.219 238.848 256.377 238.96C256.537 239.071 256.668 239.213 256.772 239.386C256.875 239.56 256.927 239.773 256.927 240.025C256.927 240.316 256.85 240.579 256.698 240.814C256.547 241.049 256.326 241.236 256.035 241.374C255.746 241.513 255.395 241.582 254.981 241.582C254.595 241.582 254.261 241.52 253.979 241.395C253.699 241.271 253.478 241.097 253.317 240.875C253.157 240.652 253.067 240.393 253.046 240.099H253.719C253.736 240.302 253.805 240.471 253.924 240.604C254.045 240.735 254.197 240.833 254.381 240.898C254.567 240.961 254.767 240.993 254.981 240.993C255.23 240.993 255.453 240.953 255.651 240.872C255.85 240.79 256.006 240.676 256.122 240.53C256.238 240.383 256.296 240.211 256.296 240.015C256.296 239.836 256.246 239.691 256.146 239.578C256.046 239.466 255.914 239.375 255.751 239.305C255.588 239.235 255.412 239.173 255.223 239.121L254.56 238.932C254.14 238.811 253.806 238.638 253.561 238.414C253.316 238.189 253.193 237.896 253.193 237.533C253.193 237.231 253.274 236.968 253.437 236.744C253.602 236.518 253.823 236.342 254.1 236.218C254.379 236.092 254.69 236.029 255.034 236.029C255.381 236.029 255.689 236.091 255.959 236.215C256.229 236.338 256.443 236.506 256.601 236.72C256.76 236.934 256.844 237.177 256.853 237.449H256.222ZM258.493 240.015L258.483 239.247H258.609L260.376 237.449H261.144L259.261 239.352H259.208L258.493 240.015ZM257.915 241.487V236.102H258.535V241.487H257.915ZM260.481 241.487L258.903 239.489L259.345 239.058L261.27 241.487H260.481ZM261.942 241.487V237.449H262.563V241.487H261.942ZM262.258 236.775C262.137 236.775 262.033 236.734 261.945 236.652C261.859 236.569 261.816 236.47 261.816 236.355C261.816 236.239 261.859 236.14 261.945 236.058C262.033 235.975 262.137 235.934 262.258 235.934C262.379 235.934 262.482 235.975 262.568 236.058C262.656 236.14 262.7 236.239 262.7 236.355C262.7 236.47 262.656 236.569 262.568 236.652C262.482 236.734 262.379 236.775 262.258 236.775ZM264.32 236.102V241.487H263.699V236.102H264.32ZM266.077 236.102V241.487H265.456V236.102H266.077ZM269.38 241.487V236.102H272.63V236.681H270.032V238.5H272.462V239.079H270.032V240.909H272.672V241.487H269.38ZM274.342 239.058V241.487H273.721V237.449H274.321V238.08H274.373C274.468 237.875 274.612 237.71 274.805 237.585C274.998 237.459 275.246 237.396 275.551 237.396C275.825 237.396 276.064 237.452 276.269 237.564C276.474 237.675 276.634 237.843 276.748 238.069C276.862 238.293 276.919 238.577 276.919 238.921V241.487H276.298V238.963C276.298 238.646 276.216 238.399 276.051 238.222C275.886 238.043 275.66 237.953 275.373 237.953C275.175 237.953 274.998 237.996 274.842 238.082C274.687 238.168 274.565 238.293 274.476 238.458C274.387 238.623 274.342 238.823 274.342 239.058ZM279.578 241.571C279.241 241.571 278.944 241.486 278.686 241.316C278.429 241.145 278.227 240.903 278.082 240.591C277.936 240.277 277.863 239.906 277.863 239.478C277.863 239.054 277.936 238.686 278.082 238.374C278.227 238.062 278.43 237.821 278.689 237.651C278.948 237.481 279.248 237.396 279.588 237.396C279.851 237.396 280.059 237.44 280.211 237.527C280.366 237.613 280.483 237.711 280.564 237.822C280.646 237.931 280.71 238.02 280.756 238.09H280.808V236.102H281.429V241.487H280.829V240.867H280.756C280.71 240.94 280.645 241.033 280.561 241.145C280.477 241.256 280.357 241.355 280.201 241.443C280.045 241.529 279.837 241.571 279.578 241.571ZM279.662 241.014C279.911 241.014 280.121 240.949 280.293 240.819C280.465 240.688 280.595 240.507 280.685 240.275C280.774 240.042 280.819 239.773 280.819 239.468C280.819 239.166 280.775 238.903 280.687 238.676C280.6 238.449 280.47 238.272 280.298 238.145C280.126 238.017 279.914 237.953 279.662 237.953C279.399 237.953 279.18 238.021 279.005 238.156C278.831 238.289 278.7 238.471 278.613 238.7C278.527 238.928 278.484 239.184 278.484 239.468C278.484 239.755 278.528 240.017 278.615 240.251C278.705 240.485 278.836 240.67 279.01 240.809C279.185 240.946 279.402 241.014 279.662 241.014ZM284.292 241.571C283.928 241.571 283.608 241.485 283.333 241.311C283.059 241.138 282.845 240.895 282.691 240.583C282.538 240.271 282.462 239.906 282.462 239.489C282.462 239.068 282.538 238.701 282.691 238.387C282.845 238.073 283.059 237.83 283.333 237.656C283.608 237.483 283.928 237.396 284.292 237.396C284.657 237.396 284.976 237.483 285.249 237.656C285.525 237.83 285.738 238.073 285.891 238.387C286.045 238.701 286.122 239.068 286.122 239.489C286.122 239.906 286.045 240.271 285.891 240.583C285.738 240.895 285.525 241.138 285.249 241.311C284.976 241.485 284.657 241.571 284.292 241.571ZM284.292 241.014C284.569 241.014 284.797 240.943 284.976 240.801C285.155 240.659 285.287 240.472 285.373 240.241C285.459 240.01 285.502 239.759 285.502 239.489C285.502 239.219 285.459 238.967 285.373 238.734C285.287 238.501 285.155 238.313 284.976 238.169C284.797 238.025 284.569 237.953 284.292 237.953C284.015 237.953 283.787 238.025 283.609 238.169C283.43 238.313 283.297 238.501 283.212 238.734C283.126 238.967 283.083 239.219 283.083 239.489C283.083 239.759 283.126 240.01 283.212 240.241C283.297 240.472 283.43 240.659 283.609 240.801C283.787 240.943 284.015 241.014 284.292 241.014ZM287.07 241.487V237.449H287.669V238.059H287.711C287.785 237.859 287.918 237.697 288.111 237.572C288.304 237.448 288.521 237.385 288.763 237.385C288.808 237.385 288.865 237.386 288.934 237.388C289.002 237.39 289.054 237.392 289.089 237.396V238.027C289.068 238.022 289.02 238.014 288.944 238.003C288.871 237.991 288.793 237.985 288.71 237.985C288.514 237.985 288.339 238.026 288.184 238.109C288.032 238.189 287.911 238.301 287.822 238.445C287.734 238.587 287.69 238.749 287.69 238.932V241.487H287.07ZM292.685 238.353L292.128 238.511C292.093 238.418 292.041 238.328 291.973 238.24C291.906 238.151 291.815 238.077 291.699 238.019C291.584 237.961 291.435 237.932 291.255 237.932C291.008 237.932 290.802 237.989 290.637 238.103C290.474 238.215 290.392 238.358 290.392 238.532C290.392 238.686 290.449 238.808 290.561 238.897C290.673 238.987 290.848 239.061 291.087 239.121L291.686 239.268C292.047 239.356 292.316 239.49 292.493 239.67C292.67 239.849 292.759 240.08 292.759 240.362C292.759 240.593 292.692 240.8 292.559 240.982C292.428 241.165 292.244 241.309 292.007 241.414C291.77 241.519 291.495 241.571 291.181 241.571C290.769 241.571 290.428 241.482 290.158 241.303C289.888 241.124 289.718 240.863 289.646 240.52L290.235 240.372C290.291 240.59 290.397 240.753 290.553 240.862C290.711 240.97 290.917 241.025 291.171 241.025C291.46 241.025 291.69 240.963 291.86 240.84C292.031 240.716 292.117 240.567 292.117 240.393C292.117 240.253 292.068 240.136 291.97 240.041C291.872 239.945 291.721 239.873 291.518 239.826L290.845 239.668C290.475 239.58 290.203 239.444 290.03 239.26C289.858 239.074 289.772 238.842 289.772 238.563C289.772 238.336 289.836 238.134 289.964 237.959C290.094 237.783 290.27 237.646 290.492 237.546C290.717 237.446 290.971 237.396 291.255 237.396C291.655 237.396 291.968 237.484 292.196 237.659C292.426 237.834 292.589 238.066 292.685 238.353ZM295.386 241.571C294.997 241.571 294.662 241.486 294.379 241.314C294.099 241.14 293.882 240.898 293.73 240.588C293.579 240.276 293.504 239.913 293.504 239.499C293.504 239.086 293.579 238.721 293.73 238.406C293.882 238.088 294.094 237.841 294.366 237.664C294.64 237.485 294.959 237.396 295.323 237.396C295.534 237.396 295.741 237.431 295.946 237.501C296.152 237.571 296.338 237.685 296.506 237.843C296.675 237.999 296.809 238.206 296.909 238.463C297.009 238.721 297.059 239.038 297.059 239.415V239.678H293.945V239.142H296.428C296.428 238.914 296.382 238.711 296.291 238.532C296.201 238.353 296.074 238.212 295.907 238.109C295.742 238.005 295.548 237.953 295.323 237.953C295.076 237.953 294.862 238.015 294.682 238.137C294.503 238.258 294.365 238.416 294.269 238.611C294.172 238.805 294.124 239.014 294.124 239.237V239.594C294.124 239.899 294.177 240.158 294.282 240.37C294.389 240.58 294.537 240.741 294.726 240.851C294.916 240.96 295.136 241.014 295.386 241.014C295.549 241.014 295.697 240.991 295.828 240.946C295.961 240.898 296.076 240.828 296.173 240.735C296.269 240.641 296.343 240.523 296.396 240.383L296.996 240.551C296.932 240.755 296.826 240.933 296.677 241.088C296.528 241.24 296.344 241.359 296.125 241.445C295.906 241.529 295.66 241.571 295.386 241.571ZM298.003 241.487V237.449H298.602V238.08H298.655C298.739 237.864 298.875 237.697 299.062 237.577C299.25 237.456 299.475 237.396 299.738 237.396C300.004 237.396 300.226 237.456 300.403 237.577C300.582 237.697 300.721 237.864 300.821 238.08H300.863C300.967 237.871 301.122 237.705 301.329 237.583C301.536 237.458 301.784 237.396 302.073 237.396C302.434 237.396 302.729 237.509 302.959 237.735C303.189 237.96 303.304 238.309 303.304 238.784V241.487H302.683V238.784C302.683 238.486 302.601 238.273 302.438 238.145C302.275 238.017 302.083 237.953 301.863 237.953C301.579 237.953 301.359 238.039 301.203 238.211C301.047 238.381 300.969 238.597 300.969 238.858V241.487H300.338V238.721C300.338 238.492 300.263 238.307 300.114 238.166C299.965 238.024 299.773 237.953 299.538 237.953C299.377 237.953 299.226 237.996 299.086 238.082C298.947 238.168 298.835 238.287 298.749 238.44C298.665 238.591 298.623 238.765 298.623 238.963V241.487H298.003ZM306.131 241.571C305.742 241.571 305.407 241.486 305.124 241.314C304.844 241.14 304.627 240.898 304.475 240.588C304.324 240.276 304.249 239.913 304.249 239.499C304.249 239.086 304.324 238.721 304.475 238.406C304.627 238.088 304.84 237.841 305.111 237.664C305.385 237.485 305.704 237.396 306.068 237.396C306.279 237.396 306.486 237.431 306.691 237.501C306.897 237.571 307.083 237.685 307.252 237.843C307.42 237.999 307.554 238.206 307.654 238.463C307.754 238.721 307.804 239.038 307.804 239.415V239.678H304.691V239.142H307.173C307.173 238.914 307.127 238.711 307.036 238.532C306.947 238.353 306.819 238.212 306.652 238.109C306.487 238.005 306.293 237.953 306.068 237.953C305.821 237.953 305.607 238.015 305.427 238.137C305.248 238.258 305.11 238.416 305.014 238.611C304.918 238.805 304.869 239.014 304.869 239.237V239.594C304.869 239.899 304.922 240.158 305.027 240.37C305.134 240.58 305.282 240.741 305.471 240.851C305.661 240.96 305.881 241.014 306.131 241.014C306.294 241.014 306.442 240.991 306.573 240.946C306.706 240.898 306.821 240.828 306.918 240.735C307.014 240.641 307.089 240.523 307.141 240.383L307.741 240.551C307.678 240.755 307.571 240.933 307.422 241.088C307.273 241.24 307.089 241.359 306.87 241.445C306.651 241.529 306.405 241.571 306.131 241.571ZM309.368 239.058V241.487H308.748V237.449H309.347V238.08H309.4C309.494 237.875 309.638 237.71 309.831 237.585C310.024 237.459 310.273 237.396 310.578 237.396C310.851 237.396 311.09 237.452 311.296 237.564C311.501 237.675 311.66 237.843 311.774 238.069C311.888 238.293 311.945 238.577 311.945 238.921V241.487H311.325V238.963C311.325 238.646 311.242 238.399 311.077 238.222C310.913 238.043 310.686 237.953 310.399 237.953C310.201 237.953 310.024 237.996 309.868 238.082C309.714 238.168 309.592 238.293 309.502 238.458C309.413 238.623 309.368 238.823 309.368 239.058ZM314.835 237.449V237.974H312.742V237.449H314.835ZM313.352 236.481H313.973V240.33C313.973 240.506 313.998 240.637 314.049 240.725C314.102 240.811 314.168 240.869 314.249 240.898C314.331 240.926 314.418 240.94 314.509 240.94C314.578 240.94 314.634 240.937 314.678 240.93C314.721 240.921 314.757 240.914 314.783 240.909L314.909 241.466C314.867 241.482 314.808 241.498 314.733 241.514C314.657 241.531 314.562 241.54 314.446 241.54C314.271 241.54 314.099 241.502 313.931 241.427C313.764 241.351 313.626 241.237 313.515 241.082C313.407 240.928 313.352 240.734 313.352 240.499V236.481Z" fill="#1E293B"/>
<rect x="102.658" y="88.0732" width="117.853" height="117.853" rx="58.9267" fill="white"/>
<rect x="102.658" y="88.0732" width="117.853" height="117.853" rx="58.9267" stroke="#F1F5F9" stroke-width="0.617034"/>
<g filter="url(#filter4_dd_742_2889)">
<rect x="102.35" y="87.7646" width="118.47" height="118.47" rx="59.2352" fill="white" fill-opacity="0.01" shape-rendering="crispEdges"/>
</g>
<path d="M149.661 163.055C147.994 163.055 146.577 162.472 145.411 161.305C144.244 160.139 143.661 158.722 143.661 157.055C143.661 155.389 144.244 153.972 145.411 152.805C146.577 151.639 147.994 151.055 149.661 151.055C150.127 151.055 150.561 151.105 150.961 151.205C151.361 151.305 151.744 151.439 152.111 151.605L154.961 148.055C154.027 147.022 153.377 145.855 153.011 144.555C152.644 143.255 152.561 141.955 152.761 140.655L148.711 139.305C148.144 140.139 147.427 140.805 146.561 141.305C145.694 141.805 144.727 142.055 143.661 142.055C141.994 142.055 140.577 141.472 139.411 140.305C138.244 139.139 137.661 137.722 137.661 136.055C137.661 134.389 138.244 132.972 139.411 131.805C140.577 130.639 141.994 130.055 143.661 130.055C145.327 130.055 146.744 130.639 147.911 131.805C149.077 132.972 149.661 134.389 149.661 136.055C149.661 136.122 149.661 136.189 149.661 136.255C149.661 136.322 149.661 136.389 149.661 136.455L153.711 137.855C154.377 136.655 155.269 135.639 156.386 134.805C157.502 133.972 158.761 133.439 160.161 133.205V128.855C158.861 128.489 157.786 127.78 156.936 126.73C156.086 125.68 155.661 124.455 155.661 123.055C155.661 121.389 156.244 119.972 157.411 118.805C158.577 117.639 159.994 117.055 161.661 117.055C163.327 117.055 164.744 117.639 165.911 118.805C167.077 119.972 167.661 121.389 167.661 123.055C167.661 124.455 167.227 125.68 166.361 126.73C165.494 127.78 164.427 128.489 163.161 128.855V133.205C164.561 133.439 165.819 133.972 166.936 134.805C168.052 135.639 168.944 136.655 169.611 137.855L173.661 136.455C173.661 136.389 173.661 136.322 173.661 136.255C173.661 136.189 173.661 136.122 173.661 136.055C173.661 134.389 174.244 132.972 175.411 131.805C176.577 130.639 177.994 130.055 179.661 130.055C181.327 130.055 182.744 130.639 183.911 131.805C185.077 132.972 185.661 134.389 185.661 136.055C185.661 137.722 185.077 139.139 183.911 140.305C182.744 141.472 181.327 142.055 179.661 142.055C178.594 142.055 177.619 141.805 176.736 141.305C175.852 140.805 175.144 140.139 174.611 139.305L170.561 140.655C170.761 141.955 170.677 143.247 170.311 144.53C169.944 145.814 169.294 146.989 168.361 148.055L171.211 151.555C171.577 151.389 171.961 151.264 172.361 151.18C172.761 151.097 173.194 151.055 173.661 151.055C175.327 151.055 176.744 151.639 177.911 152.805C179.077 153.972 179.661 155.389 179.661 157.055C179.661 158.722 179.077 160.139 177.911 161.305C176.744 162.472 175.327 163.055 173.661 163.055C171.994 163.055 170.577 162.472 169.411 161.305C168.244 160.139 167.661 158.722 167.661 157.055C167.661 156.389 167.769 155.747 167.986 155.13C168.202 154.514 168.494 153.955 168.861 153.455L166.011 149.905C164.644 150.672 163.186 151.055 161.636 151.055C160.086 151.055 158.627 150.672 157.261 149.905L154.461 153.455C154.827 153.955 155.119 154.514 155.336 155.13C155.552 155.747 155.661 156.389 155.661 157.055C155.661 158.722 155.077 160.139 153.911 161.305C152.744 162.472 151.327 163.055 149.661 163.055ZM143.661 138.055C144.227 138.055 144.702 137.864 145.086 137.48C145.469 137.097 145.661 136.622 145.661 136.055C145.661 135.489 145.469 135.014 145.086 134.63C144.702 134.247 144.227 134.055 143.661 134.055C143.094 134.055 142.619 134.247 142.236 134.63C141.852 135.014 141.661 135.489 141.661 136.055C141.661 136.622 141.852 137.097 142.236 137.48C142.619 137.864 143.094 138.055 143.661 138.055ZM149.661 159.055C150.227 159.055 150.702 158.864 151.086 158.48C151.469 158.097 151.661 157.622 151.661 157.055C151.661 156.489 151.469 156.014 151.086 155.63C150.702 155.247 150.227 155.055 149.661 155.055C149.094 155.055 148.619 155.247 148.236 155.63C147.852 156.014 147.661 156.489 147.661 157.055C147.661 157.622 147.852 158.097 148.236 158.48C148.619 158.864 149.094 159.055 149.661 159.055ZM161.661 125.055C162.227 125.055 162.702 124.864 163.086 124.48C163.469 124.097 163.661 123.622 163.661 123.055C163.661 122.489 163.469 122.014 163.086 121.63C162.702 121.247 162.227 121.055 161.661 121.055C161.094 121.055 160.619 121.247 160.236 121.63C159.852 122.014 159.661 122.489 159.661 123.055C159.661 123.622 159.852 124.097 160.236 124.48C160.619 124.864 161.094 125.055 161.661 125.055ZM161.661 147.055C163.061 147.055 164.244 146.572 165.211 145.605C166.177 144.639 166.661 143.455 166.661 142.055C166.661 140.655 166.177 139.472 165.211 138.505C164.244 137.539 163.061 137.055 161.661 137.055C160.261 137.055 159.077 137.539 158.111 138.505C157.144 139.472 156.661 140.655 156.661 142.055C156.661 143.455 157.144 144.639 158.111 145.605C159.077 146.572 160.261 147.055 161.661 147.055ZM173.661 159.055C174.227 159.055 174.702 158.864 175.086 158.48C175.469 158.097 175.661 157.622 175.661 157.055C175.661 156.489 175.469 156.014 175.086 155.63C174.702 155.247 174.227 155.055 173.661 155.055C173.094 155.055 172.619 155.247 172.236 155.63C171.852 156.014 171.661 156.489 171.661 157.055C171.661 157.622 171.852 158.097 172.236 158.48C172.619 158.864 173.094 159.055 173.661 159.055ZM179.661 138.055C180.227 138.055 180.702 137.864 181.086 137.48C181.469 137.097 181.661 136.622 181.661 136.055C181.661 135.489 181.469 135.014 181.086 134.63C180.702 134.247 180.227 134.055 179.661 134.055C179.094 134.055 178.619 134.247 178.236 134.63C177.852 135.014 177.661 135.489 177.661 136.055C177.661 136.622 177.852 137.097 178.236 137.48C178.619 137.864 179.094 138.055 179.661 138.055Z" fill="black"/>
<path d="M139.996 178L138.148 171.564H138.847L140.446 177.326H140.299L141.94 171.564H142.674L144.307 177.326H144.151L145.758 171.564H146.458L144.609 178H143.875L142.225 172.212H142.381L140.731 178H139.996ZM149.044 178.104C148.606 178.104 148.209 178 147.852 177.793C147.495 177.58 147.209 177.292 146.996 176.929C146.789 176.56 146.685 176.143 146.685 175.676C146.685 175.216 146.789 174.804 146.996 174.441C147.204 174.078 147.483 173.793 147.834 173.586C148.191 173.373 148.595 173.266 149.044 173.266C149.493 173.266 149.893 173.37 150.244 173.577C150.602 173.784 150.881 174.069 151.082 174.432C151.29 174.795 151.393 175.21 151.393 175.676C151.393 176.148 151.287 176.569 151.074 176.937C150.861 177.3 150.576 177.585 150.219 177.793C149.867 178 149.476 178.104 149.044 178.104ZM149.044 177.456C149.355 177.456 149.634 177.378 149.882 177.223C150.135 177.067 150.334 176.854 150.478 176.583C150.627 176.313 150.702 176.01 150.702 175.676C150.702 175.342 150.627 175.043 150.478 174.778C150.334 174.513 150.135 174.303 149.882 174.147C149.634 173.992 149.355 173.914 149.044 173.914C148.733 173.914 148.451 173.992 148.197 174.147C147.95 174.303 147.751 174.513 147.601 174.778C147.451 175.043 147.377 175.342 147.377 175.676C147.377 176.01 147.451 176.313 147.601 176.583C147.751 176.854 147.95 177.067 148.197 177.223C148.451 177.378 148.733 177.456 149.044 177.456ZM152.536 178V173.37H153.184V174.13L153.098 174.018C153.207 173.799 153.371 173.626 153.59 173.499C153.815 173.373 154.085 173.309 154.402 173.309H154.696V173.957H154.29C153.956 173.957 153.688 174.061 153.486 174.268C153.285 174.476 153.184 174.769 153.184 175.149V178H152.536ZM155.455 178V171.461H156.103V176.039L155.826 175.996L158.427 173.37H159.264L157.45 175.227L159.429 178H158.651L156.794 175.434L157.209 175.469L155.887 176.834L156.103 176.298V178H155.455ZM161.794 178.104C161.351 178.104 160.962 177.991 160.628 177.767C160.294 177.542 160.052 177.237 159.902 176.851L160.447 176.592C160.579 176.874 160.763 177.099 161 177.266C161.241 177.433 161.506 177.516 161.794 177.516C162.071 177.516 162.304 177.45 162.494 177.318C162.684 177.179 162.779 177.001 162.779 176.782C162.779 176.621 162.733 176.494 162.641 176.402C162.549 176.304 162.442 176.229 162.321 176.177C162.2 176.125 162.094 176.088 162.002 176.065L161.336 175.875C160.91 175.754 160.602 175.584 160.412 175.365C160.222 175.146 160.127 174.893 160.127 174.605C160.127 174.334 160.196 174.098 160.334 173.897C160.473 173.695 160.66 173.54 160.896 173.43C161.132 173.321 161.394 173.266 161.682 173.266C162.074 173.266 162.428 173.37 162.744 173.577C163.067 173.779 163.294 174.061 163.427 174.424L162.874 174.683C162.759 174.424 162.592 174.222 162.373 174.078C162.16 173.928 161.921 173.854 161.656 173.854C161.397 173.854 161.19 173.92 161.034 174.052C160.879 174.185 160.801 174.352 160.801 174.553C160.801 174.709 160.841 174.833 160.922 174.925C161.002 175.017 161.095 175.086 161.198 175.132C161.308 175.178 161.403 175.213 161.483 175.236L162.252 175.46C162.626 175.57 162.917 175.74 163.125 175.97C163.338 176.2 163.444 176.471 163.444 176.782C163.444 177.035 163.372 177.263 163.228 177.464C163.09 177.666 162.897 177.824 162.649 177.94C162.402 178.049 162.117 178.104 161.794 178.104ZM164.583 179.728V173.37H165.231V174.406L165.127 174.225C165.311 173.931 165.556 173.698 165.861 173.525C166.172 173.353 166.526 173.266 166.924 173.266C167.361 173.266 167.75 173.373 168.09 173.586C168.435 173.793 168.706 174.078 168.902 174.441C169.103 174.804 169.204 175.218 169.204 175.685C169.204 176.146 169.103 176.56 168.902 176.929C168.706 177.292 168.435 177.58 168.09 177.793C167.75 178 167.361 178.104 166.924 178.104C166.526 178.104 166.166 178.014 165.844 177.836C165.527 177.652 165.288 177.392 165.127 177.058L165.231 176.963V179.728H164.583ZM166.889 177.456C167.2 177.456 167.477 177.378 167.718 177.223C167.966 177.067 168.159 176.857 168.297 176.592C168.441 176.321 168.513 176.019 168.513 175.685C168.513 175.345 168.441 175.043 168.297 174.778C168.159 174.513 167.966 174.303 167.718 174.147C167.477 173.992 167.2 173.914 166.889 173.914C166.578 173.914 166.296 173.992 166.043 174.147C165.795 174.303 165.596 174.516 165.446 174.786C165.303 175.051 165.231 175.351 165.231 175.685C165.231 176.019 165.303 176.321 165.446 176.592C165.596 176.857 165.795 177.067 166.043 177.223C166.296 177.378 166.578 177.456 166.889 177.456ZM171.683 178.104C171.39 178.104 171.128 178.049 170.897 177.94C170.667 177.824 170.486 177.669 170.353 177.473C170.221 177.277 170.154 177.053 170.154 176.799C170.154 176.557 170.206 176.339 170.31 176.143C170.414 175.941 170.575 175.771 170.794 175.633C171.012 175.495 171.292 175.397 171.632 175.339L173.446 175.037V175.624L171.787 175.901C171.453 175.958 171.211 176.065 171.061 176.22C170.917 176.376 170.845 176.56 170.845 176.773C170.845 176.981 170.926 177.156 171.087 177.3C171.254 177.444 171.467 177.516 171.727 177.516C172.043 177.516 172.32 177.45 172.556 177.318C172.792 177.179 172.976 176.995 173.109 176.765C173.241 176.534 173.307 176.278 173.307 175.996V174.821C173.307 174.545 173.207 174.32 173.005 174.147C172.804 173.974 172.541 173.888 172.219 173.888C171.937 173.888 171.689 173.96 171.476 174.104C171.263 174.242 171.105 174.424 171.001 174.648L170.414 174.329C170.5 174.133 170.635 173.954 170.82 173.793C171.01 173.632 171.226 173.505 171.467 173.413C171.709 173.315 171.96 173.266 172.219 173.266C172.559 173.266 172.858 173.332 173.117 173.465C173.382 173.597 173.587 173.782 173.731 174.018C173.88 174.248 173.955 174.516 173.955 174.821V178H173.307V177.076L173.402 177.171C173.322 177.343 173.195 177.502 173.022 177.646C172.855 177.784 172.657 177.896 172.426 177.983C172.202 178.063 171.954 178.104 171.683 178.104ZM177.404 178.104C176.949 178.104 176.549 177.997 176.204 177.784C175.858 177.571 175.587 177.283 175.392 176.92C175.196 176.552 175.098 176.137 175.098 175.676C175.098 175.216 175.196 174.804 175.392 174.441C175.587 174.078 175.858 173.793 176.204 173.586C176.549 173.373 176.949 173.266 177.404 173.266C177.692 173.266 177.963 173.318 178.216 173.422C178.47 173.525 178.694 173.666 178.89 173.845C179.086 174.018 179.233 174.219 179.331 174.45L178.743 174.752C178.628 174.504 178.453 174.303 178.216 174.147C177.98 173.992 177.71 173.914 177.404 173.914C177.099 173.914 176.823 173.992 176.575 174.147C176.333 174.297 176.14 174.507 175.996 174.778C175.858 175.043 175.789 175.345 175.789 175.685C175.789 176.019 175.858 176.321 175.996 176.592C176.14 176.857 176.333 177.067 176.575 177.223C176.823 177.378 177.099 177.456 177.404 177.456C177.71 177.456 177.977 177.378 178.208 177.223C178.444 177.067 178.622 176.86 178.743 176.601L179.331 176.92C179.233 177.145 179.086 177.346 178.89 177.525C178.694 177.703 178.47 177.845 178.216 177.948C177.963 178.052 177.692 178.104 177.404 178.104ZM182.575 178.104C182.144 178.104 181.752 178 181.401 177.793C181.055 177.58 180.782 177.289 180.58 176.92C180.378 176.552 180.278 176.134 180.278 175.668C180.278 175.201 180.376 174.789 180.571 174.432C180.767 174.069 181.032 173.784 181.366 173.577C181.706 173.37 182.086 173.266 182.506 173.266C182.84 173.266 183.137 173.329 183.396 173.456C183.661 173.577 183.886 173.744 184.07 173.957C184.254 174.165 184.395 174.401 184.493 174.666C184.591 174.925 184.64 175.192 184.64 175.469C184.64 175.527 184.637 175.593 184.631 175.668C184.626 175.737 184.617 175.809 184.605 175.884H180.692V175.279H184.234L183.923 175.538C183.975 175.221 183.937 174.939 183.811 174.691C183.69 174.438 183.514 174.239 183.284 174.095C183.053 173.946 182.794 173.871 182.506 173.871C182.218 173.871 181.951 173.946 181.703 174.095C181.461 174.245 181.271 174.455 181.133 174.726C180.995 174.991 180.94 175.308 180.969 175.676C180.94 176.045 180.997 176.367 181.141 176.644C181.291 176.914 181.493 177.125 181.746 177.274C182.005 177.424 182.282 177.499 182.575 177.499C182.915 177.499 183.2 177.418 183.431 177.257C183.661 177.096 183.848 176.894 183.992 176.652L184.545 176.946C184.453 177.153 184.312 177.346 184.122 177.525C183.932 177.698 183.704 177.839 183.439 177.948C183.18 178.052 182.892 178.104 182.575 178.104Z" fill="black"/>
<defs>
<filter id="filter0_dd_742_2889" x="4.29178" y="32.3874" width="105.419" height="44.4902" filterUnits="userSpaceOnUse" color-interpolation-filters="sRGB">
<feFlood flood-opacity="0" result="BackgroundImageFix"/>
<feColorMatrix in="SourceAlpha" type="matrix" values="0 0 0 0 0 0 0 0 0 0 0 0 0 0 0 0 0 0 127 0" result="hardAlpha"/>
<feMorphology radius="1.23407" operator="erode" in="SourceAlpha" result="effect1_dropShadow_742_2889"/>
<feOffset dy="1.23407"/>
<feGaussianBlur stdDeviation="1.23407"/>
<feComposite in2="hardAlpha" operator="out"/>
<feColorMatrix type="matrix" values="0 0 0 0 0 0 0 0 0 0 0 0 0 0 0 0 0 0 0.1 0"/>
<feBlend mode="normal" in2="BackgroundImageFix" result="effect1_dropShadow_742_2889"/>
<feColorMatrix in="SourceAlpha" type="matrix" values="0 0 0 0 0 0 0 0 0 0 0 0 0 0 0 0 0 0 127 0" result="hardAlpha"/>
<feMorphology radius="0.617034" operator="erode" in="SourceAlpha" result="effect2_dropShadow_742_2889"/>
<feOffset dy="2.46813"/>
<feGaussianBlur stdDeviation="1.8511"/>
<feComposite in2="hardAlpha" operator="out"/>
<feColorMatrix type="matrix" values="0 0 0 0 0 0 0 0 0 0 0 0 0 0 0 0 0 0 0.1 0"/>
<feBlend mode="normal" in2="effect1_dropShadow_742_2889" result="effect2_dropShadow_742_2889"/>
<feBlend mode="normal" in="SourceGraphic" in2="effect2_dropShadow_742_2889" result="shape"/>
</filter>
<filter id="filter1_dd_742_2889" x="217.735" y="34.8566" width="100.133" height="42.0219" filterUnits="userSpaceOnUse" color-interpolation-filters="sRGB">
<feFlood flood-opacity="0" result="BackgroundImageFix"/>
<feColorMatrix in="SourceAlpha" type="matrix" values="0 0 0 0 0 0 0 0 0 0 0 0 0 0 0 0 0 0 127 0" result="hardAlpha"/>
<feMorphology radius="1.23407" operator="erode" in="SourceAlpha" result="effect1_dropShadow_742_2889"/>
<feOffset dy="1.23407"/>
<feGaussianBlur stdDeviation="1.23407"/>
<feComposite in2="hardAlpha" operator="out"/>
<feColorMatrix type="matrix" values="0 0 0 0 0 0 0 0 0 0 0 0 0 0 0 0 0 0 0.1 0"/>
<feBlend mode="normal" in2="BackgroundImageFix" result="effect1_dropShadow_742_2889"/>
<feColorMatrix in="SourceAlpha" type="matrix" values="0 0 0 0 0 0 0 0 0 0 0 0 0 0 0 0 0 0 127 0" result="hardAlpha"/>
<feMorphology radius="0.617034" operator="erode" in="SourceAlpha" result="effect2_dropShadow_742_2889"/>
<feOffset dy="2.46813"/>
<feGaussianBlur stdDeviation="1.8511"/>
<feComposite in2="hardAlpha" operator="out"/>
<feColorMatrix type="matrix" values="0 0 0 0 0 0 0 0 0 0 0 0 0 0 0 0 0 0 0.1 0"/>
<feBlend mode="normal" in2="effect1_dropShadow_742_2889" result="effect2_dropShadow_742_2889"/>
<feBlend mode="normal" in="SourceGraphic" in2="effect2_dropShadow_742_2889" result="shape"/>
</filter>
<filter id="filter2_dd_742_2889" x="-0.000207484" y="203.378" width="99.2031" height="40.4902" filterUnits="userSpaceOnUse" color-interpolation-filters="sRGB">
<feFlood flood-opacity="0" result="BackgroundImageFix"/>
<feColorMatrix in="SourceAlpha" type="matrix" values="0 0 0 0 0 0 0 0 0 0 0 0 0 0 0 0 0 0 127 0" result="hardAlpha"/>
<feMorphology radius="1.23407" operator="erode" in="SourceAlpha" result="effect1_dropShadow_742_2889"/>
<feOffset dy="1.23407"/>
<feGaussianBlur stdDeviation="1.23407"/>
<feComposite in2="hardAlpha" operator="out"/>
<feColorMatrix type="matrix" values="0 0 0 0 0 0 0 0 0 0 0 0 0 0 0 0 0 0 0.1 0"/>
<feBlend mode="normal" in2="BackgroundImageFix" result="effect1_dropShadow_742_2889"/>
<feColorMatrix in="SourceAlpha" type="matrix" values="0 0 0 0 0 0 0 0 0 0 0 0 0 0 0 0 0 0 127 0" result="hardAlpha"/>
<feMorphology radius="0.617034" operator="erode" in="SourceAlpha" result="effect2_dropShadow_742_2889"/>
<feOffset dy="2.46813"/>
<feGaussianBlur stdDeviation="1.8511"/>
<feComposite in2="hardAlpha" operator="out"/>
<feColorMatrix type="matrix" values="0 0 0 0 0 0 0 0 0 0 0 0 0 0 0 0 0 0 0.1 0"/>
<feBlend mode="normal" in2="effect1_dropShadow_742_2889" result="effect2_dropShadow_742_2889"/>
<feBlend mode="normal" in="SourceGraphic" in2="effect2_dropShadow_742_2889" result="shape"/>
</filter>
<filter id="filter3_dd_742_2889" x="206.705" y="216.548" width="121.838" height="49.1073" filterUnits="userSpaceOnUse" color-interpolation-filters="sRGB">
<feFlood flood-opacity="0" result="BackgroundImageFix"/>
<feColorMatrix in="SourceAlpha" type="matrix" values="0 0 0 0 0 0 0 0 0 0 0 0 0 0 0 0 0 0 127 0" result="hardAlpha"/>
<feMorphology radius="1.23407" operator="erode" in="SourceAlpha" result="effect1_dropShadow_742_2889"/>
<feOffset dy="1.23407"/>
<feGaussianBlur stdDeviation="1.23407"/>
<feComposite in2="hardAlpha" operator="out"/>
<feColorMatrix type="matrix" values="0 0 0 0 0 0 0 0 0 0 0 0 0 0 0 0 0 0 0.1 0"/>
<feBlend mode="normal" in2="BackgroundImageFix" result="effect1_dropShadow_742_2889"/>
<feColorMatrix in="SourceAlpha" type="matrix" values="0 0 0 0 0 0 0 0 0 0 0 0 0 0 0 0 0 0 127 0" result="hardAlpha"/>
<feMorphology radius="0.617034" operator="erode" in="SourceAlpha" result="effect2_dropShadow_742_2889"/>
<feOffset dy="2.46813"/>
<feGaussianBlur stdDeviation="1.8511"/>
<feComposite in2="hardAlpha" operator="out"/>
<feColorMatrix type="matrix" values="0 0 0 0 0 0 0 0 0 0 0 0 0 0 0 0 0 0 0.1 0"/>
<feBlend mode="normal" in2="effect1_dropShadow_742_2889" result="effect2_dropShadow_742_2889"/>
<feBlend mode="normal" in="SourceGraphic" in2="effect2_dropShadow_742_2889" result="shape"/>
</filter>
<filter id="filter4_dd_742_2889" x="90.0089" y="87.7646" width="143.152" height="143.152" filterUnits="userSpaceOnUse" color-interpolation-filters="sRGB">
<feFlood flood-opacity="0" result="BackgroundImageFix"/>
<feColorMatrix in="SourceAlpha" type="matrix" values="0 0 0 0 0 0 0 0 0 0 0 0 0 0 0 0 0 0 127 0" result="hardAlpha"/>
<feMorphology radius="3.7022" operator="erode" in="SourceAlpha" result="effect1_dropShadow_742_2889"/>
<feOffset dy="4.93627"/>
<feGaussianBlur stdDeviation="3.08517"/>
<feComposite in2="hardAlpha" operator="out"/>
<feColorMatrix type="matrix" values="0 0 0 0 0 0 0 0 0 0 0 0 0 0 0 0 0 0 0.1 0"/>
<feBlend mode="normal" in2="BackgroundImageFix" result="effect1_dropShadow_742_2889"/>
<feColorMatrix in="SourceAlpha" type="matrix" values="0 0 0 0 0 0 0 0 0 0 0 0 0 0 0 0 0 0 127 0" result="hardAlpha"/>
<feMorphology radius="3.08517" operator="erode" in="SourceAlpha" result="effect2_dropShadow_742_2889"/>
<feOffset dy="12.3407"/>
<feGaussianBlur stdDeviation="7.71292"/>
<feComposite in2="hardAlpha" operator="out"/>
<feColorMatrix type="matrix" values="0 0 0 0 0 0 0 0 0 0 0 0 0 0 0 0 0 0 0.1 0"/>
<feBlend mode="normal" in2="effect1_dropShadow_742_2889" result="effect2_dropShadow_742_2889"/>
<feBlend mode="normal" in="SourceGraphic" in2="effect2_dropShadow_742_2889" result="shape"/>
</filter>
</defs>
</svg>
